999
"DXF R12 Output" (www.mydxf.blogspot.com)
 0 
SECTION
 2 
HEADER
 9 
$ACADVER
 1 
AC1009
 9 
$EXTMIN
 10 
 0 
 20 
 0 
 9 
$EXTMAX
 10 
 8.5 
 20 
 11 
 0 
ENDSEC
 0 
SECTION
 2 
ENTITIES
0
LINE
8
Layer 1
10
8.528300
20
86.667600
11
8.650246
21
86.096019
0
LINE
8
Layer 1
10
8.650240
20
86.096000
11
9.047670
21
85.498307
0
LINE
8
Layer 1
10
9.047670
20
85.498300
11
9.677166
21
84.984215
0
LINE
8
Layer 1
10
9.677170
20
84.984200
11
10.511771
21
84.583092
0
LINE
8
Layer 1
10
10.511800
20
84.583100
11
11.484910
21
84.332011
0
LINE
8
Layer 1
10
11.484900
20
84.332000
11
12.511800
21
84.248127
0
LINE
8
Layer 1
10
12.511800
20
84.248200
11
13.538700
21
84.332073
0
LINE
8
Layer 1
10
13.538700
20
84.332000
11
14.511810
21
84.583089
0
LINE
8
Layer 1
10
14.511800
20
84.583100
11
15.346374
21
84.984208
0
LINE
8
Layer 1
10
15.346400
20
84.984200
11
15.975922
21
85.498285
0
LINE
8
Layer 1
10
15.975900
20
85.498300
11
16.373277
21
86.095993
0
LINE
8
Layer 1
10
16.373300
20
86.096000
11
16.523178
21
86.667581
0
LINE
8
Layer 1
10
16.521100
20
100.277000
11
16.373300
21
100.915000
0
LINE
8
Layer 1
10
16.373300
20
100.914000
11
15.975817
21
101.511958
0
LINE
8
Layer 1
10
15.975900
20
101.512000
11
15.346378
21
102.026085
0
LINE
8
Layer 1
10
15.346400
20
102.026000
11
14.511826
21
102.426843
0
LINE
8
Layer 1
10
14.511800
20
102.427000
11
13.538690
21
102.678089
0
LINE
8
Layer 1
10
13.538700
20
102.678000
11
12.511800
21
102.762137
0
LINE
8
Layer 1
10
12.511800
20
102.762000
11
11.484900
21
102.678921
0
LINE
8
Layer 1
10
11.484900
20
102.678000
11
10.511790
21
102.426911
0
LINE
8
Layer 1
10
10.511800
20
102.427000
11
9.677199
21
102.026157
0
LINE
8
Layer 1
10
9.677170
20
102.026000
11
9.047674
21
101.511915
0
LINE
8
Layer 1
10
9.047670
20
101.512000
11
8.650240
21
100.914042
0
LINE
8
Layer 1
10
8.650240
20
100.914000
11
8.527260
21
100.272402
0
LINE
8
Layer 1
10
16.521800
20
100.282000
11
16.521800
21
86.665500
0
LINE
8
Layer 1
10
8.527850
20
86.665600
11
8.527850
21
100.282100
0
LINE
8
Layer 1
10
0.132292
20
106.812000
11
24.891300
21
106.812000
0
LINE
8
Layer 1
10
24.891300
20
106.812000
11
24.891300
21
0.132718
0
LINE
8
Layer 1
10
24.891300
20
0.132718
11
0.132292
21
0.132718
0
LINE
8
Layer 1
10
0.132292
20
0.132718
11
0.132292
21
106.812000
0
LINE
8
Layer 1
10
22.924800
20
91.997300
11
22.723800
21
92.747400
0
LINE
8
Layer 1
10
22.723800
20
92.747400
11
22.174817
21
93.296410
0
LINE
8
Layer 1
10
22.174800
20
93.296400
11
21.424800
21
93.497200
0
LINE
8
Layer 1
10
21.424800
20
93.497200
11
20.674813
21
93.296382
0
LINE
8
Layer 1
10
20.674800
20
93.296400
11
20.125700
21
92.747400
0
LINE
8
Layer 1
10
20.125700
20
92.747400
11
19.924802
21
91.997307
0
LINE
8
Layer 1
10
19.924800
20
91.997300
11
20.125698
21
91.247736
0
LINE
8
Layer 1
10
20.125700
20
91.247700
11
20.674816
21
90.698690
0
LINE
8
Layer 1
10
20.674800
20
90.698700
11
21.424787
21
90.497882
0
LINE
8
Layer 1
10
21.424800
20
90.497900
11
22.174813
21
90.698718
0
LINE
8
Layer 1
10
22.174800
20
90.698700
11
22.723783
21
91.247710
0
LINE
8
Layer 1
10
22.723800
20
91.247700
11
22.924804
21
91.997264
0
LINE
8
Layer 1
10
22.924800
20
91.997300
11
22.924800
21
91.997300
0
LINE
8
Layer 1
10
5.098740
20
91.997300
11
4.897790
21
92.747400
0
LINE
8
Layer 1
10
4.897790
20
92.747400
11
4.348754
21
93.296410
0
LINE
8
Layer 1
10
4.348760
20
93.296400
11
3.598773
21
93.497218
0
LINE
8
Layer 1
10
3.598770
20
93.497200
11
2.848757
21
93.296382
0
LINE
8
Layer 1
10
2.848760
20
93.296400
11
2.299720
21
92.747400
0
LINE
8
Layer 1
10
2.299720
20
92.747400
11
2.098761
21
91.997307
0
LINE
8
Layer 1
10
2.098760
20
91.997300
11
2.299719
21
91.247736
0
LINE
8
Layer 1
10
2.299720
20
91.247700
11
2.848759
21
90.698690
0
LINE
8
Layer 1
10
2.848760
20
90.698700
11
3.598773
21
90.497882
0
LINE
8
Layer 1
10
3.598770
20
90.497900
11
4.348757
21
90.698718
0
LINE
8
Layer 1
10
4.348760
20
90.698700
11
4.897796
21
91.247710
0
LINE
8
Layer 1
10
4.897790
20
91.247700
11
5.098741
21
91.997264
0
LINE
8
Layer 1
10
5.098740
20
91.997300
11
5.098740
21
91.997300
0
LINE
8
Layer 1
10
11.117600
20
49.433500
11
11.223698
21
49.966899
0
LINE
8
Layer 1
10
11.223700
20
49.966900
11
11.525907
21
50.419337
0
LINE
8
Layer 1
10
11.525900
20
50.419400
11
11.978284
21
50.721554
0
LINE
8
Layer 1
10
11.978300
20
50.721500
11
12.511805
21
50.827598
0
LINE
8
Layer 1
10
12.511800
20
50.827600
11
13.045305
21
50.721502
0
LINE
8
Layer 1
10
13.045300
20
50.721500
11
13.497600
21
50.419400
0
LINE
8
Layer 1
10
13.497600
20
50.419400
11
13.799886
21
49.966963
0
LINE
8
Layer 1
10
13.799900
20
49.966900
11
13.905998
21
49.433501
0
LINE
8
Layer 1
10
13.906000
20
49.433500
11
13.799902
21
48.899836
0
LINE
8
Layer 1
10
13.799900
20
48.899900
11
13.497600
21
48.447700
0
LINE
8
Layer 1
10
13.497600
20
48.447700
11
13.045295
21
48.145282
0
LINE
8
Layer 1
10
13.045300
20
48.145300
11
12.511795
21
48.039202
0
LINE
8
Layer 1
10
12.511800
20
48.039200
11
11.978295
21
48.145298
0
LINE
8
Layer 1
10
11.978300
20
48.145300
11
11.525916
21
48.447718
0
LINE
8
Layer 1
10
11.525900
20
48.447700
11
11.223693
21
48.899872
0
LINE
8
Layer 1
10
11.223700
20
48.899900
11
11.117602
21
49.433564
0
LINE
8
Layer 1
10
11.117600
20
49.433500
11
11.117600
21
49.433500
0
LINE
8
Layer 1
10
4.490100
20
44.290600
11
20.533400
21
44.290600
0
LINE
8
Layer 1
10
20.533400
20
44.290600
11
20.533400
21
6.765810
0
LINE
8
Layer 1
10
20.533400
20
6.765810
11
4.490100
21
6.765810
0
LINE
8
Layer 1
10
4.490100
20
6.765810
11
4.490100
21
44.290600
0
LINE
8
Layer 1
10
7.583630
20
8.115190
11
17.439900
21
8.115190
0
LINE
8
Layer 1
10
17.439900
20
8.115190
11
17.439900
21
6.659980
0
LINE
8
Layer 1
10
17.439900
20
6.659980
11
7.583630
21
6.659980
0
LINE
8
Layer 1
10
7.583630
20
6.659980
11
7.583630
21
8.115190
 0 
ENDSEC
 0 
EOF