999
"DXF R12 Output" (www.mydxf.blogspot.com)
 0 
SECTION
 2 
HEADER
 9 
$ACADVER
 1 
AC1009
 9 
$EXTMIN
 10 
 0 
 20 
 0 
 9 
$EXTMAX
 10 
 8.5 
 20 
 11 
 0 
ENDSEC
 0 
SECTION
 2 
ENTITIES
0
LINE
8
Layer 1
10
0.793749
20
297.794000
11
-0.793749
21
296.206000
0
LINE
8
Layer 1
10
0.000000
20
298.323000
11
0.000000
21
295.677000
0
LINE
8
Layer 1
10
2.116660
20
295.942000
11
1.058330
21
294.883670
0
LINE
8
Layer 1
10
1.587500
20
296.471000
11
0.529170
21
295.412670
0
LINE
8
Layer 1
10
1.058330
20
297.000000
11
0.000000
21
295.941670
0
LINE
8
Layer 1
10
0.793749
20
297.794000
11
-0.793749
21
296.206000
0
LINE
8
Layer 1
10
0.000000
20
298.323000
11
0.000000
21
295.677000
0
LINE
8
Layer 1
10
2.116660
20
295.942000
11
1.058330
21
294.884000
0
LINE
8
Layer 1
10
1.587500
20
296.471000
11
0.529169
21
295.413000
0
LINE
8
Layer 1
10
1.058330
20
297.000000
11
0.000000
21
295.942000
0
LINE
8
Layer 1
10
0.000000
20
120.000000
11
0.000000
21
110.000000
0
LINE
8
Layer 1
10
0.120500
20
114.879000
11
24.879500
21
114.879000
0
LINE
8
Layer 1
10
24.879500
20
114.879000
11
24.879500
21
8.199720
0
LINE
8
Layer 1
10
24.879500
20
8.199720
11
0.120500
21
8.199720
0
LINE
8
Layer 1
10
0.120500
20
8.199720
11
0.120500
21
114.879000
0
LINE
8
Layer 1
10
22.913000
20
100.064000
11
22.712000
21
100.814000
0
LINE
8
Layer 1
10
22.712000
20
100.814000
11
22.163000
21
101.363000
0
LINE
8
Layer 1
10
22.163000
20
101.363000
11
21.413000
21
101.564000
0
LINE
8
Layer 1
10
21.413000
20
101.564000
11
20.663000
21
101.363000
0
LINE
8
Layer 1
10
20.663000
20
101.363000
11
20.113900
21
100.814000
0
LINE
8
Layer 1
10
20.113900
20
100.814000
11
19.913000
21
100.064000
0
LINE
8
Layer 1
10
19.913000
20
100.064000
11
20.113900
21
99.314400
0
LINE
8
Layer 1
10
20.113900
20
99.314400
11
20.663000
21
98.765400
0
LINE
8
Layer 1
10
20.663000
20
98.765400
11
21.413000
21
98.564600
0
LINE
8
Layer 1
10
21.413000
20
98.564600
11
22.163000
21
98.765400
0
LINE
8
Layer 1
10
22.163000
20
98.765400
11
22.712000
21
99.314400
0
LINE
8
Layer 1
10
22.712000
20
99.314400
11
22.913000
21
100.064000
0
LINE
8
Layer 1
10
22.913000
20
100.064000
11
22.913000
21
100.064000
0
LINE
8
Layer 1
10
5.086950
20
100.064000
11
4.886000
21
100.814000
0
LINE
8
Layer 1
10
4.886000
20
100.814000
11
4.336970
21
101.363000
0
LINE
8
Layer 1
10
4.336970
20
101.363000
11
3.586980
21
101.564000
0
LINE
8
Layer 1
10
3.586980
20
101.564000
11
2.836960
21
101.363000
0
LINE
8
Layer 1
10
2.836960
20
101.363000
11
2.287930
21
100.814000
0
LINE
8
Layer 1
10
2.287930
20
100.814000
11
2.086970
21
100.064000
0
LINE
8
Layer 1
10
2.086970
20
100.064000
11
2.287930
21
99.314400
0
LINE
8
Layer 1
10
2.287930
20
99.314400
11
2.836960
21
98.765400
0
LINE
8
Layer 1
10
2.836960
20
98.765400
11
3.586980
21
98.564600
0
LINE
8
Layer 1
10
3.586980
20
98.564600
11
4.336970
21
98.765400
0
LINE
8
Layer 1
10
4.336970
20
98.765400
11
4.886000
21
99.314400
0
LINE
8
Layer 1
10
4.886000
20
99.314400
11
5.086950
21
100.064000
0
LINE
8
Layer 1
10
5.086950
20
100.064000
11
5.086950
21
100.064000
0
LINE
8
Layer 1
10
8.499970
20
94.814900
11
8.638450
21
94.162700
0
LINE
8
Layer 1
10
8.638450
20
94.162700
11
9.035880
21
93.565000
0
LINE
8
Layer 1
10
9.035880
20
93.565000
11
9.665380
21
93.051000
0
LINE
8
Layer 1
10
9.665380
20
93.051000
11
10.500000
21
92.649800
0
LINE
8
Layer 1
10
10.500000
20
92.649800
11
11.473100
21
92.398800
0
LINE
8
Layer 1
10
11.473100
20
92.398800
11
12.500000
21
92.314900
0
LINE
8
Layer 1
10
12.500000
20
92.314900
11
13.526900
21
92.398800
0
LINE
8
Layer 1
10
13.526900
20
92.398800
11
14.500000
21
92.649800
0
LINE
8
Layer 1
10
14.500000
20
92.649800
11
15.334600
21
93.051000
0
LINE
8
Layer 1
10
15.334600
20
93.051000
11
15.964100
21
93.565000
0
LINE
8
Layer 1
10
15.964100
20
93.565000
11
16.361500
21
94.162700
0
LINE
8
Layer 1
10
16.361500
20
94.162700
11
16.500000
21
94.814900
0
LINE
8
Layer 1
10
16.500000
20
108.329000
11
16.361500
21
108.982000
0
LINE
8
Layer 1
10
16.361500
20
108.981000
11
15.964000
21
109.579000
0
LINE
8
Layer 1
10
15.964100
20
109.579000
11
15.334600
21
110.093000
0
LINE
8
Layer 1
10
15.334600
20
110.093000
11
14.500000
21
110.494000
0
LINE
8
Layer 1
10
14.500000
20
110.494000
11
13.526900
21
110.745000
0
LINE
8
Layer 1
10
13.526900
20
110.745000
11
12.500000
21
110.829000
0
LINE
8
Layer 1
10
12.500000
20
110.829000
11
11.473100
21
110.746000
0
LINE
8
Layer 1
10
11.473100
20
110.745000
11
10.500000
21
110.494000
0
LINE
8
Layer 1
10
10.500000
20
110.494000
11
9.665380
21
110.093000
0
LINE
8
Layer 1
10
9.665380
20
110.093000
11
9.035880
21
109.579000
0
LINE
8
Layer 1
10
9.035880
20
109.579000
11
8.638450
21
108.981000
0
LINE
8
Layer 1
10
8.638450
20
108.981000
11
8.499990
21
108.329000
0
LINE
8
Layer 1
10
11.105800
20
57.500300
11
11.211900
21
58.033700
0
LINE
8
Layer 1
10
11.211900
20
58.033700
11
11.514100
21
58.486100
0
LINE
8
Layer 1
10
11.514100
20
58.486100
11
11.966500
21
58.788300
0
LINE
8
Layer 1
10
11.966500
20
58.788300
11
12.500000
21
58.894300
0
LINE
8
Layer 1
10
12.500000
20
58.894300
11
13.033500
21
58.788300
0
LINE
8
Layer 1
10
13.033500
20
58.788300
11
13.485800
21
58.486100
0
LINE
8
Layer 1
10
13.485800
20
58.486100
11
13.788100
21
58.033700
0
LINE
8
Layer 1
10
13.788100
20
58.033700
11
13.894200
21
57.500300
0
LINE
8
Layer 1
10
13.894200
20
57.500300
11
13.788100
21
56.966600
0
LINE
8
Layer 1
10
13.788100
20
56.966600
11
13.485800
21
56.514400
0
LINE
8
Layer 1
10
13.485800
20
56.514400
11
13.033500
21
56.212000
0
LINE
8
Layer 1
10
13.033500
20
56.212000
11
12.500000
21
56.105900
0
LINE
8
Layer 1
10
12.500000
20
56.105900
11
11.966500
21
56.212000
0
LINE
8
Layer 1
10
11.966500
20
56.212000
11
11.514100
21
56.514400
0
LINE
8
Layer 1
10
11.514100
20
56.514400
11
11.211900
21
56.966600
0
LINE
8
Layer 1
10
11.211900
20
56.966600
11
11.105800
21
57.500300
0
LINE
8
Layer 1
10
11.105800
20
57.500300
11
11.105800
21
57.500300
0
LINE
8
Layer 1
10
4.478310
20
52.357300
11
20.521600
21
52.357300
0
LINE
8
Layer 1
10
20.521600
20
52.357300
11
20.521600
21
14.832800
0
LINE
8
Layer 1
10
20.521600
20
14.832800
11
4.478310
21
14.832800
0
LINE
8
Layer 1
10
4.478310
20
14.832800
11
4.478310
21
52.357300
0
LINE
8
Layer 1
10
7.571840
20
16.182200
11
17.428100
21
16.182200
0
LINE
8
Layer 1
10
17.428100
20
16.182200
11
17.428100
21
14.727000
0
LINE
8
Layer 1
10
17.428100
20
14.727000
11
7.571840
21
14.727000
0
LINE
8
Layer 1
10
7.571840
20
14.727000
11
7.571840
21
16.182200
0
LINE
8
Layer 1
10
8.516070
20
108.349000
11
16.510000
21
108.349000
0
LINE
8
Layer 1
10
16.510000
20
108.349000
11
16.510000
21
94.732400
0
LINE
8
Layer 1
10
16.510000
20
94.732400
11
8.516070
21
94.732400
0
LINE
8
Layer 1
10
8.516070
20
94.732400
11
8.516070
21
108.349000
 0 
ENDSEC
 0 
EOF