999
"DXF R12 Output" (www.mydxf.blogspot.com)
 0 
SECTION
 2 
HEADER
 9 
$ACADVER
 1 
AC1009
 9 
$EXTMIN
 10 
 0 
 20 
 0 
 9 
$EXTMAX
 10 
 8.5 
 20 
 11 
 0 
ENDSEC
 0 
SECTION
 2 
ENTITIES
0
LINE
8
Image
10
2.960820
20
0.057905
11
2.033738
21
0.277057
0
LINE
8
Image
10
2.033738
20
0.277057
11
1.425430
21
0.578790
0
LINE
8
Image
10
1.425430
20
0.578790
11
1.309860
21
1.457777
0
LINE
8
Image
10
1.309860
20
1.457777
11
1.280526
21
2.244968
0
LINE
8
Image
10
1.280526
20
2.244968
11
0.839983
21
2.693869
0
LINE
8
Image
10
0.839983
20
2.693869
11
0.196592
21
3.488058
0
LINE
8
Image
10
0.196592
20
3.488058
11
0.019414
21
4.171489
0
LINE
8
Image
10
0.019414
20
4.171489
11
0.117478
21
4.639487
0
LINE
8
Image
10
0.117478
20
4.639487
11
0.385570
21
5.062815
0
LINE
8
Image
10
0.385570
20
5.062815
11
0.784974
21
5.397505
0
LINE
8
Image
10
0.784974
20
5.397505
11
1.276974
21
5.599589
0
LINE
8
Image
10
1.276974
20
5.599589
11
1.974435
21
5.623134
0
LINE
8
Image
10
1.974435
20
5.623134
11
2.708564
21
5.379184
0
LINE
8
Image
10
2.708564
20
5.379184
11
3.106354
21
5.181509
0
LINE
8
Image
10
3.106354
20
5.181509
11
3.135461
21
5.392412
0
LINE
8
Image
10
3.135461
20
5.392412
11
3.216169
21
5.895153
0
LINE
8
Image
10
3.216169
20
5.895153
11
3.489842
21
6.316104
0
LINE
8
Image
10
3.489842
20
6.316104
11
3.717594
21
6.564655
0
LINE
8
Image
10
3.717594
20
6.564655
11
3.717590
21
6.840060
0
LINE
8
Image
10
3.717590
20
6.840060
11
3.717590
21
7.115480
0
LINE
8
Image
10
3.717590
20
7.115480
11
3.426520
21
7.115480
0
LINE
8
Image
10
3.426520
20
7.115480
11
3.135460
21
7.115480
0
LINE
8
Image
10
3.135460
20
7.115480
11
3.135460
21
7.406540
0
LINE
8
Image
10
3.135460
20
7.406540
11
3.135460
21
7.697610
0
LINE
8
Image
10
3.135460
20
7.697610
11
3.429710
21
7.697610
0
LINE
8
Image
10
3.429710
20
7.697610
11
3.723960
21
7.697610
0
LINE
8
Image
10
3.723960
20
7.697610
11
3.711072
21
7.969359
0
LINE
8
Image
10
3.711072
20
7.969359
11
3.698184
21
8.241108
0
LINE
8
Image
10
3.698184
20
8.241108
11
3.998953
21
8.241021
0
LINE
8
Image
10
3.998953
20
8.241021
11
4.299721
21
8.240933
0
LINE
8
Image
10
4.299721
20
8.240933
11
4.299720
21
7.969270
0
LINE
8
Image
10
4.299720
20
7.969270
11
4.299720
21
7.697610
0
LINE
8
Image
10
4.299720
20
7.697610
11
4.590790
21
7.697610
0
LINE
8
Image
10
4.590790
20
7.697610
11
4.881850
21
7.697610
0
LINE
8
Image
10
4.881850
20
7.697610
11
4.881850
21
7.406540
0
LINE
8
Image
10
4.881850
20
7.406540
11
4.881850
21
7.115480
0
LINE
8
Image
10
4.881850
20
7.115480
11
4.590790
21
7.115480
0
LINE
8
Image
10
4.590790
20
7.115480
11
4.299720
21
7.115480
0
LINE
8
Image
10
4.299720
20
7.115480
11
4.299720
21
6.813380
0
LINE
8
Image
10
4.299720
20
6.813380
11
4.299720
21
6.511290
0
LINE
8
Image
10
4.299720
20
6.511290
11
4.511972
21
6.301675
0
LINE
8
Image
10
4.511972
20
6.301675
11
4.768683
21
5.946480
0
LINE
8
Image
10
4.768683
20
5.946480
11
4.869320
21
5.455989
0
LINE
8
Image
10
4.869320
20
5.455989
11
4.893315
21
5.174213
0
LINE
8
Image
10
4.893315
20
5.174213
11
5.149545
21
5.315501
0
LINE
8
Image
10
5.149545
20
5.315501
11
6.183235
21
5.629073
0
LINE
8
Image
10
6.183235
20
5.629073
11
6.940474
21
5.531932
0
LINE
8
Image
10
6.940474
20
5.531932
11
7.549255
21
5.139344
0
LINE
8
Image
10
7.549255
20
5.139344
11
7.853919
21
4.709597
0
LINE
8
Image
10
7.853919
20
4.709597
11
7.977511
21
4.224221
0
LINE
8
Image
10
7.977511
20
4.224221
11
7.810624
21
3.494697
0
LINE
8
Image
10
7.810624
20
3.494697
11
7.104547
21
2.639301
0
LINE
8
Image
10
7.104547
20
2.639301
11
6.717694
21
2.257451
0
LINE
8
Image
10
6.717694
20
2.257451
11
6.694829
21
1.481669
0
LINE
8
Image
10
6.694829
20
1.481669
11
6.611883
21
0.614197
0
LINE
8
Image
10
6.611883
20
0.614197
11
5.998672
21
0.287305
0
LINE
8
Image
10
5.998672
20
0.287305
11
4.964473
21
0.052478
0
LINE
8
Image
10
4.964473
20
0.052478
11
2.960813
21
0.057913
0
LINE
8
Image
10
2.960813
20
0.057913
11
2.960820
21
0.057905
0
LINE
8
Image
10
2.327203
20
0.750018
11
4.008663
21
0.944235
0
LINE
8
Image
10
4.008663
20
0.944235
11
5.690643
21
0.749890
0
LINE
8
Image
10
5.690643
20
0.749890
11
6.204860
21
0.655969
0
LINE
8
Image
10
6.204860
20
0.655969
11
6.240170
21
0.771734
0
LINE
8
Image
10
6.240170
20
0.771734
11
5.941757
21
1.001518
0
LINE
8
Image
10
5.941757
20
1.001518
11
5.186357
21
1.171813
0
LINE
8
Image
10
5.186357
20
1.171813
11
3.143640
21
1.214083
0
LINE
8
Image
10
3.143640
20
1.214083
11
2.190343
21
1.038551
0
LINE
8
Image
10
2.190343
20
1.038551
11
1.752930
21
0.810475
0
LINE
8
Image
10
1.752930
20
0.810475
11
1.837146
21
0.634402
0
LINE
8
Image
10
1.837146
20
0.634402
11
2.327207
21
0.750018
0
LINE
8
Image
10
2.327207
20
0.750018
11
2.327203
21
0.750018
0
LINE
8
Image
10
2.572732
20
1.486749
11
4.095350
21
1.597881
0
LINE
8
Image
10
4.095350
20
1.597881
11
5.687042
21
1.444698
0
LINE
8
Image
10
5.687042
20
1.444698
11
6.138999
21
1.386926
0
LINE
8
Image
10
6.138999
20
1.386926
11
6.240164
21
1.486083
0
LINE
8
Image
10
6.240164
20
1.486083
11
5.782182
21
1.767356
0
LINE
8
Image
10
5.782182
20
1.767356
11
4.298860
21
1.895728
0
LINE
8
Image
10
4.298860
20
1.895728
11
2.592132
21
1.836237
0
LINE
8
Image
10
2.592132
20
1.836237
11
1.827555
21
1.588348
0
LINE
8
Image
10
1.827555
20
1.588348
11
1.776798
21
1.430403
0
LINE
8
Image
10
1.776798
20
1.430403
11
2.572728
21
1.486749
0
LINE
8
Image
10
2.572728
20
1.486749
11
2.572732
21
1.486749
0
LINE
8
Image
10
2.339879
20
2.417152
11
3.270909
21
2.535020
0
LINE
8
Image
10
3.270909
20
2.535020
11
3.851157
21
2.615268
0
LINE
8
Image
10
3.851157
20
2.615268
11
3.718640
21
3.758138
0
LINE
8
Image
10
3.718640
20
3.758138
11
3.221853
21
4.608695
0
LINE
8
Image
10
3.221853
20
4.608695
11
2.488000
21
5.201768
0
LINE
8
Image
10
2.488000
20
5.201768
11
1.740428
21
5.349669
0
LINE
8
Image
10
1.740428
20
5.349669
11
1.070128
21
5.245659
0
LINE
8
Image
10
1.070128
20
5.245659
11
0.653639
21
4.955847
0
LINE
8
Image
10
0.653639
20
4.955847
11
0.380386
21
4.585119
0
LINE
8
Image
10
0.380386
20
4.585119
11
0.304005
21
4.098367
0
LINE
8
Image
10
0.304005
20
4.098367
11
0.417574
21
3.603952
0
LINE
8
Image
10
0.417574
20
3.603952
11
1.524254
21
2.466902
0
LINE
8
Image
10
1.524254
20
2.466902
11
1.818672
21
2.349173
0
LINE
8
Image
10
1.818672
20
2.349173
11
2.339879
21
2.417150
0
LINE
8
Image
10
2.339879
20
2.417150
11
2.339879
21
2.417152
0
LINE
8
Image
10
1.255149
20
3.127869
11
0.697367
21
3.780468
0
LINE
8
Image
10
0.697367
20
3.780468
11
0.638049
21
4.303012
0
LINE
8
Image
10
0.638049
20
4.303012
11
0.932233
21
4.766134
0
LINE
8
Image
10
0.932233
20
4.766134
11
1.390553
21
4.991032
0
LINE
8
Image
10
1.390553
20
4.991032
11
1.935744
21
5.013900
0
LINE
8
Image
10
1.935744
20
5.013900
11
2.479165
21
4.846508
0
LINE
8
Image
10
2.479165
20
4.846508
11
2.932173
21
4.500623
0
LINE
8
Image
10
2.932173
20
4.500623
11
3.418183
21
3.562091
0
LINE
8
Image
10
3.418183
20
3.562091
11
3.527662
21
2.924123
0
LINE
8
Image
10
3.527662
20
2.924123
11
2.075392
21
2.708033
0
LINE
8
Image
10
2.075392
20
2.708033
11
1.769677
21
2.652461
0
LINE
8
Image
10
1.769677
20
2.652461
11
1.255155
21
3.127869
0
LINE
8
Image
10
1.255155
20
3.127869
11
1.255149
21
3.127869
0
LINE
8
Image
10
6.537089
20
2.512716
11
7.155868
21
3.086245
0
LINE
8
Image
10
7.155868
20
3.086245
11
7.634758
21
3.720803
0
LINE
8
Image
10
7.634758
20
3.720803
11
7.708679
21
4.181423
0
LINE
8
Image
10
7.708679
20
4.181423
11
7.617129
21
4.612307
0
LINE
8
Image
10
7.617129
20
4.612307
11
6.957634
21
5.235592
0
LINE
8
Image
10
6.957634
20
5.235592
11
6.376326
21
5.367779
0
LINE
8
Image
10
6.376326
20
5.367779
11
5.751014
21
5.299963
0
LINE
8
Image
10
5.751014
20
5.299963
11
4.873785
21
4.716865
0
LINE
8
Image
10
4.873785
20
4.716865
11
4.280754
21
3.724673
0
LINE
8
Image
10
4.280754
20
3.724673
11
4.172229
21
2.601083
0
LINE
8
Image
10
4.172229
20
2.601083
11
4.759514
21
2.532451
0
LINE
8
Image
10
4.759514
20
2.532451
11
5.647958
21
2.419435
0
LINE
8
Image
10
5.647958
20
2.419435
11
6.202175
21
2.350296
0
LINE
8
Image
10
6.202175
20
2.350296
11
6.537088
21
2.512712
0
LINE
8
Image
10
6.537088
20
2.512712
11
6.537089
21
2.512716
0
LINE
8
Image
10
6.081696
20
2.668531
11
4.658706
21
2.906227
0
LINE
8
Image
10
4.658706
20
2.906227
11
4.455306
21
3.053894
0
LINE
8
Image
10
4.455306
20
3.053894
11
4.852467
21
4.170134
0
LINE
8
Image
10
4.852467
20
4.170134
11
5.351152
21
4.737389
0
LINE
8
Image
10
5.351152
20
4.737389
11
6.026717
21
5.013313
0
LINE
8
Image
10
6.026717
20
5.013313
11
6.625614
21
4.987708
0
LINE
8
Image
10
6.625614
20
4.987708
11
7.107687
21
4.754142
0
LINE
8
Image
10
7.107687
20
4.754142
11
7.389989
21
4.193123
0
LINE
8
Image
10
7.389989
20
4.193123
11
7.282509
21
3.742274
0
LINE
8
Image
10
7.282509
20
3.742274
11
6.733170
21
3.108463
0
LINE
8
Image
10
6.733170
20
3.108463
11
6.184460
21
2.652459
0
LINE
8
Image
10
6.184460
20
2.652459
11
6.081698
21
2.668528
0
LINE
8
Image
10
6.081698
20
2.668528
11
6.081696
21
2.668531
0
LINE
8
Image
10
4.322046
20
4.560591
11
4.560006
21
5.545739
0
LINE
8
Image
10
4.560006
20
5.545739
11
4.451580
21
5.908974
0
LINE
8
Image
10
4.451580
20
5.908974
11
4.243338
21
6.146561
0
LINE
8
Image
10
4.243338
20
6.146561
11
3.982189
21
6.226742
0
LINE
8
Image
10
3.982189
20
6.226742
11
3.715046
21
6.117759
0
LINE
8
Image
10
3.715046
20
6.117759
11
3.511444
21
5.832675
0
LINE
8
Image
10
3.511444
20
5.832675
11
3.446781
21
5.414511
0
LINE
8
Image
10
3.446781
20
5.414511
11
3.823204
21
4.267461
0
LINE
8
Image
10
3.823204
20
4.267461
11
3.995328
21
3.922611
0
LINE
8
Image
10
3.995328
20
3.922611
11
4.071943
21
4.048594
0
LINE
8
Image
10
4.071943
20
4.048594
11
4.322046
21
4.560591
0
LINE
8
Image
10
4.322046
20
4.560591
11
4.322046
21
4.560591
0
LINE
8
Image
10
3.933410
20
4.758480
11
3.756511
21
5.332106
0
LINE
8
Image
10
3.756511
20
5.332106
11
3.825770
21
5.831580
0
LINE
8
Image
10
3.825770
20
5.831580
11
4.012841
21
5.931811
0
LINE
8
Image
10
4.012841
20
5.931811
11
4.172362
21
5.833813
0
LINE
8
Image
10
4.172362
20
5.833813
11
4.250755
21
5.583795
0
LINE
8
Image
10
4.250755
20
5.583795
11
4.133541
21
4.891551
0
LINE
8
Image
10
4.133541
20
4.891551
11
4.011694
21
4.670523
0
LINE
8
Image
10
4.011694
20
4.670523
11
3.933406
21
4.758478
0
LINE
8
Image
10
3.933406
20
4.758478
11
3.933410
21
4.758480
 0 
ENDSEC
 0 
EOF