<?xml version="1.0" standalone="no"?>
<!DOCTYPE svg PUBLIC "-//W3C//DTD SVG 20010904//EN"
 "http://www.w3.org/TR/2001/REC-SVG-20010904/DTD/svg10.dtd">
<svg version="1.0" xmlns="http://www.w3.org/2000/svg"
 width="176.000000pt" height="81.000000pt" viewBox="0 0 176.000000 81.000000"
 preserveAspectRatio="xMidYMid meet">
<metadata>
Created by potrace 1.16, written by Peter Selinger 2001-2019
</metadata>
<g transform="translate(0.000000,81.000000) scale(0.100000,-0.100000)"
fill="#000000" stroke="none">
<path d="M370 575 l0 -235 -97 0 c-96 0 -98 0 -130 32 l-33 32 -55 -54 c-30
-30 -55 -59 -55 -65 0 -6 22 -32 48 -58 l48 -47 191 0 191 0 26 34 26 35 0
280 0 281 -80 0 -80 0 0 -235z m120 -57 c0 -335 18 -308 -205 -308 l-161 0
-37 38 -37 38 30 29 30 29 23 -22 c21 -20 34 -22 150 -22 l127 0 0 240 0 240
40 0 40 0 0 -262z"/>
<path d="M590 495 l0 -315 80 0 80 0 0 120 0 120 115 0 115 0 0 -148 0 -148
53 -39 c28 -21 67 -49 85 -63 l32 -24 0 406 0 406 -85 0 -85 0 0 -110 0 -110
-115 0 -115 0 0 110 0 110 -80 0 -80 0 0 -315z m120 165 l0 -110 155 0 155 0
0 110 0 110 45 0 45 0 0 -335 c0 -184 -2 -335 -5 -335 -3 0 -23 12 -45 26
l-40 27 0 154 0 154 -152 -3 -153 -3 -3 -117 -3 -118 -39 0 -40 0 0 275 0 275
40 0 40 0 0 -110z"/>
<path d="M1200 495 l0 -315 80 0 80 0 0 120 0 120 115 0 115 0 0 -147 1 -148
84 -63 85 -62 0 405 0 405 -85 0 -85 0 0 -110 0 -110 -115 0 -115 0 0 110 0
110 -80 0 -80 0 0 -315z m120 165 l0 -110 155 0 155 0 0 110 0 110 45 0 45 0
0 -335 c0 -184 -2 -335 -5 -335 -3 0 -23 12 -45 26 l-40 27 0 154 0 154 -152
-3 -153 -3 -3 -117 -3 -118 -39 0 -40 0 0 275 0 275 40 0 40 0 0 -110z"/>
</g>
</svg>
