<?xml version="1.0" encoding="UTF-8" standalone="no"?>
<svg
   viewBox="0 0 30.209802 41.990247"
   width="30.209803"
   height="41.990246"
   version="1.1"
   id="svg518"
   sodipodi:docname="VNP-KingLogo.svg"
   inkscape:version="1.2.1 (9c6d41e410, 2022-07-14)"
   inkscape:export-filename="..\..\..\Downloads\VNP-KingLogo.png"
   inkscape:export-xdpi="1000"
   inkscape:export-ydpi="1000"
   xml:space="preserve"
   xmlns:inkscape="http://www.inkscape.org/namespaces/inkscape"
   xmlns:sodipodi="http://sodipodi.sourceforge.net/DTD/sodipodi-0.dtd"
   xmlns="http://www.w3.org/2000/svg"
   xmlns:svg="http://www.w3.org/2000/svg"><sodipodi:namedview
     id="namedview520"
     pagecolor="#505050"
     bordercolor="#eeeeee"
     borderopacity="1"
     inkscape:showpageshadow="0"
     inkscape:pageopacity="0"
     inkscape:pagecheckerboard="0"
     inkscape:deskcolor="#505050"
     showgrid="false"
     inkscape:zoom="16"
     inkscape:cx="12.21875"
     inkscape:cy="23.96875"
     inkscape:window-width="1920"
     inkscape:window-height="991"
     inkscape:window-x="-9"
     inkscape:window-y="-9"
     inkscape:window-maximized="1"
     inkscape:current-layer="g516" /><desc
     id="desc182">king.dxf - scale = 1.000000, origin = (0.000000, 0.000000), method = manual</desc><defs
     id="defs194"><rect
       x="-0.3125"
       y="31.5"
       width="34"
       height="18"
       id="rect6224" /><marker
       id="DistanceX"
       orient="auto"
       refX="0"
       refY="0"
       style="overflow:visible"><path
         d="M 3,-3 -3,3 M 0,-5 V 5"
         style="stroke:#000000;stroke-width:0.5"
         id="path184" /></marker><pattern
       id="Hatch"
       patternUnits="userSpaceOnUse"
       width="8"
       height="8"
       x="0"
       y="0"><path
         d="M8 4 l-4,4"
         stroke="#000000"
         stroke-width="0.25"
         linecap="square"
         id="path187" /><path
         d="M6 2 l-4,4"
         stroke="#000000"
         stroke-width="0.25"
         linecap="square"
         id="path189" /><path
         d="M4 0 l-4,4"
         stroke="#000000"
         stroke-width="0.25"
         linecap="square"
         id="path191" /></pattern><inkscape:path-effect
       effect="fill_between_many"
       method="originald"
       linkedpaths="#path198,0,1|#path200,0,1|#path202,0,1|#path204,0,1|#path206,0,1|#path208,0,1|#path210,0,1|#path212,0,1|#path214,0,1|#path216,0,1|#path218,0,1|#path220,0,1|#path222,0,1|#path224,0,1|#path226,0,1|#path228,0,1|#path230,0,1|#path232,0,1|#path234,0,1|#path236,0,1|#path238,0,1|#path240,0,1|#path242,0,1|#path244,0,1|#path246,0,1|#path248,0,1|#path250,0,1|#path252,0,1|#path254,0,1|#path256,0,1|#path258,0,1|#path260,0,1|#path262,0,1|#path264,0,1|#path266,0,1|#path268,0,1|#path270,0,1|#path272,0,1|#path274,0,1|#path276,0,1|#path278,0,1|#path280,0,1|#path282,0,1|#path284,0,1|#path286,0,1|#path288,0,1|#path290,0,1|#path292,0,1|#path294,0,1|#path296,0,1|#path298,0,1|#path300,0,1|#path302,0,1|#path304,0,1|#path306,0,1|#path308,0,1|#path310,0,1|#path312,0,1|#path314,0,1|#path316,0,1|#path318,0,1|#path320,0,1|#path322,0,1|#path324,0,1|#path326,0,1|#path328,0,1|#path330,0,1|#path332,0,1|#path334,0,1|#path336,0,1|#path338,0,1|#path340,0,1|#path342,0,1|#path344,0,1|#path346,0,1|#path348,0,1|#path350,0,1|#path352,0,1|#path354,0,1|#path356,0,1|#path358,0,1|#path360,0,1|#path362,0,1|#path364,0,1|#path366,0,1|#path368,0,1|#path370,0,1|#path372,0,1|#path374,0,1|#path376,0,1|#path378,0,1|#path380,0,1|#path382,0,1|#path384,0,1|#path386,0,1|#path388,0,1|#path390,0,1|#path392,0,1|#path394,0,1|#path396,0,1|#path398,0,1|#path400,0,1|#path402,0,1|#path404,0,1|#path406,0,1|#path408,0,1|#path410,0,1|#path412,0,1|#path414,0,1|#path416,0,1|#path418,0,1|#path420,0,1|#path422,0,1|#path424,0,1|#path426,0,1|#path428,0,1|#path430,0,1|#path432,0,1|#path434,0,1|#path436,0,1|#path438,0,1|#path440,0,1|#path442,0,1|#path444,0,1|#path446,0,1|#path448,0,1|#path450,0,1|#path452,0,1|#path454,0,1|#path456,0,1|#path458,0,1|#path460,0,1|#path462,0,1|#path464,0,1|#path466,0,1|#path468,0,1|#path470,0,1|#path472,0,1|#path474,0,1|#path476,0,1|#path478,0,1|#path480,0,1|#path482,0,1|#path484,0,1|#path486,0,1|#path488,0,1|#path490,0,1|#path492,0,1|#path494,0,1|#path496,0,1|#path498,0,1|#path500,0,1|#path502,0,1|#path504,0,1|#path506,0,1|#path508,0,1|#path510,0,1|#path512,0,1|#path514,0,1"
       id="path-effect1838"
       is_visible="true"
       lpeversion="0"
       join="true"
       close="true"
       autoreverse="true" /></defs><g
     inkscape:groupmode="layer"
     inkscape:label="0"
     id="g196"
     transform="translate(-17.341201,-1099.4485)" /><g
     inkscape:groupmode="layer"
     inkscape:label="Image"
     id="g516"
     transform="translate(-17.341201,-1099.4485)"><g
       id="g6335"><g
         aria-label="VNP"
         transform="translate(19.620615,1097.261)"
         id="text6222"
         style="font-size:13.3333px;white-space:pre;fill:none;stroke:#000000;stroke-width:0.245669"><path
           style="color:#000000;-inkscape-font-specification:'Berlin Sans FB';fill:#000000;stroke:none;-inkscape-stroke:none"
           d="m 0.3125,34.779297 c -0.0836448,0 -0.17431583,0.04372 -0.22070313,0.115234 -0.04638729,0.07151 -0.05859375,0.154473 -0.05859375,0.248047 0,0.339771 -0.01304983,0.855586 -0.0390625,1.544922 -0.02172178,0.686408 -0.03320312,1.201403 -0.03320312,1.546875 0,0.04838 0.01206868,0.08344 0.02734375,0.130859 0.01527507,0.04742 0.03638639,0.102339 0.06445312,0.169922 0.05613347,0.135167 0.13840379,0.315184 0.24804688,0.541016 0.21928618,0.451664 0.54781195,1.088938 0.98437495,1.912109 0.5099777,0.959193 0.8941107,1.681883 1.1523438,2.167969 0.1291165,0.243043 0.2268035,0.426044 0.2929688,0.550781 0.066165,0.124738 0.1068461,0.20588 0.1015625,0.195313 0.033616,0.0694 0.06904,0.126053 0.1132812,0.171875 0.044593,0.04619 0.1068987,0.08398 0.1796875,0.08398 h 1.3085937 c 0.072046,0 0.1409152,-0.03204 0.1933594,-0.07813 0.052444,-0.04609 0.093702,-0.103943 0.1308594,-0.175781 h -0.00195 l 1.6152343,-3.007813 c 0.4257958,-0.803798 0.7449203,-1.428934 0.9589844,-1.878906 0.1070321,-0.224986 0.1892304,-0.405965 0.2441406,-0.544922 0.05491,-0.138956 0.087891,-0.223064 0.087891,-0.316406 0,-0.322286 -0.00499,-0.801154 -0.013672,-1.439453 -0.00868,-0.642082 -0.011719,-1.123287 -0.011719,-1.44336 0,-0.0972 -0.00102,-0.166394 0,-0.205078 5.09e-4,-0.01934 0.0027,-0.03529 0.00195,-0.0293 -1.872e-4,0.0015 -0.00413,0.01637 -0.00391,0.01563 5.51e-5,-1.86e-4 -0.00396,0.0138 -0.00391,0.01367 5.61e-5,-1.31e-4 -0.015682,0.02547 -0.015625,0.02539 2.86e-5,-3.8e-5 -0.017607,0.01956 -0.017578,0.01953 0,0 -0.064979,-0.07694 -0.074219,-0.08789 L 7.6406173,35.0078 c -7.35e-5,-5.14e-4 7.38e-5,-0.0014 0,-0.002 -5.256e-4,-0.0037 -9.06e-5,-0.0062 -0.00195,-0.01367 -0.00106,-0.0042 -0.00769,-0.01924 -0.00781,-0.01953 -6.15e-5,-1.44e-4 -0.011658,-0.02139 -0.011719,-0.02148 -3.02e-5,-4.5e-5 -0.013642,-0.01755 -0.013672,-0.01758 -1.07e-5,-1.1e-5 -0.00527,-0.0043 -0.00977,-0.0078 -0.01656,-0.03216 -0.023405,-0.06951 -0.052734,-0.0918 -0.054766,-0.04162 -0.1201233,-0.05469 -0.1855468,-0.05469 -0.084949,0 -0.2069518,0.0064 -0.3691407,0.01953 -0.1545611,0.01288 -0.2704958,0.01953 -0.3417968,0.01953 -0.071301,0 -0.1886657,-0.0066 -0.3476563,-0.01953 -0.1622777,-0.01316 -0.2860704,-0.01953 -0.375,-0.01953 -0.066354,0 -0.1354221,0.01533 -0.1894531,0.06445 -0.054031,0.04912 -0.076172,0.121578 -0.076172,0.1875 0,0.336859 0.011481,0.842229 0.033203,1.515625 0.02168,0.672077 0.03125,1.175803 0.03125,1.511719 0,0.01898 -0.013039,0.09428 -0.048828,0.197265 -0.035783,0.103041 -0.09154,0.239337 -0.1660091,0.404347 C 5.3588746,38.990177 5.1329821,39.440553 4.8320312,40.007812 4.4541554,40.720266 4.1086281,41.335288 3.78125,41.900391 3.1788596,40.850088 2.6898665,39.969205 2.3789063,39.361328 2.2115695,39.034212 2.0859407,38.770572 2.0039063,38.574219 1.9218718,38.377865 1.8867187,38.236104 1.8867187,38.208984 c 0,-0.350477 0.021234,-0.88103 0.064453,-1.585937 v -0.002 c 0.047718,-0.707528 0.072266,-1.239017 0.072266,-1.595703 0,-0.06602 -0.026075,-0.141276 -0.082031,-0.1875 -0.055956,-0.04622 -0.1226282,-0.05859 -0.1894531,-0.05859 -0.084948,0 -0.2069517,0.0064 -0.3691406,0.01953 -0.1589906,0.01289 -0.2763552,0.01953 -0.3476563,0.01953 -0.075584,0 -0.19591102,-0.0068 -0.35351558,-0.01953 H 0.6796875 C 0.52287508,34.785796 0.40096034,34.779297 0.3125,34.779297 Z m 0,0.246094 c 0.0760004,0 0.19318891,0.0047 0.34765625,0.01758 0.16227772,0.01316 0.28607047,0.02148 0.37499995,0.02148 0.084948,0 0.2049986,-0.0083 0.3671875,-0.02148 0.1589906,-0.01289 0.2783084,-0.01758 0.3496094,-0.01758 0.025263,0 0.024757,0.0021 0.025391,0.002 -5.83e-5,0.346023 -0.022721,0.872897 -0.070312,1.578125 v 0.002 c -0.04348,0.708719 -0.066406,1.240667 -0.066406,1.601562 0,0.12045 0.050568,0.254732 0.1367187,0.460938 0.086151,0.206206 0.213779,0.472301 0.3828126,0.802734 0.338067,0.660867 0.8423254,1.573687 1.515625,2.742188 l 0.1054687,0.183593 0.1074219,-0.18164 c 0.3570037,-0.609519 0.7448034,-1.306954 1.1621093,-2.09375 0.3023457,-0.569889 0.5289303,-1.022948 0.6816407,-1.361328 0.076355,-0.16919 0.1342052,-0.309806 0.1738281,-0.423828 0.039623,-0.114023 0.0625,-0.198453 0.0625,-0.279297 0,-0.341165 -0.00953,-0.846127 -0.03125,-1.519532 -0.02168,-0.672085 -0.033203,-1.17627 -0.033203,-1.507812 0,-0.02088 0.00238,-0.01158 -0.00391,-0.0059 -0.00629,0.0057 -0.00569,0 0.023437,0 0.076,0 0.1965671,0.0047 0.3554688,0.01758 0.1621888,0.01315 0.282239,0.02148 0.3671875,0.02148 0.084493,0 0.2046527,-0.0085 0.3613281,-0.02148 0.1589905,-0.01289 0.2783083,-0.01758 0.3496094,-0.01758 0.030062,0 0.037622,0.0062 0.037109,0.0059 -4.686e-4,0.0089 -0.00163,0.01712 -0.00195,0.0293 -0.00115,0.04378 -0.00195,0.11478 -0.00195,0.21289 0,0.322286 0.00303,0.804631 0.011719,1.447266 0.00868,0.637738 0.013672,1.115474 0.013672,1.435547 0,-0.0022 -0.018886,0.09642 -0.070312,0.226562 -0.051426,0.13014 -0.1306873,0.307236 -0.2363281,0.529297 -0.2112817,0.444123 -0.5301824,1.067042 -0.9550781,1.869141 l -1.6152344,3.007812 v 0.002 c -0.027946,0.05403 -0.055049,0.08862 -0.074219,0.105468 -0.01917,0.01685 -0.025171,0.01563 -0.03125,0.01563 H 3.125 c 0.012025,0 0.014217,0.0089 -0.00195,-0.0078 C 3.10688,43.887707 3.079634,43.848847 3.052738,43.793129 3.040944,43.769539 3.013482,43.716789 2.9472692,43.591957 2.8810529,43.46697 2.7834259,43.284082 2.6542969,43.041016 2.3960387,42.554883 2.0119372,41.832252 1.5019531,40.873047 1.0661234,40.051259 0.73839459,39.41552 0.52148437,38.96875 0.41302927,38.745365 0.33221251,38.568825 0.27929688,38.441406 c -0.0264578,-0.06371 -0.0446534,-0.11513 -0.0566406,-0.152344 -0.0119872,-0.03721 -0.015625,-0.06509 -0.015625,-0.05469 0,-0.339858 0.0115773,-0.853298 0.0332031,-1.537109 v -0.002 c 0.0260052,-0.689565 0.0390625,-1.207178 0.0390625,-1.552734 0,-0.06701 0.0138354,-0.1045 0.0195313,-0.113281 0.005696,-0.0088 -0.00685,-0.0039 0.0136719,-0.0039 z m 7.203125,0.002 c -0.00309,0.01378 -0.025391,0.111328 -0.025391,0.111328 0,0 -0.011719,-0.0039 -0.011719,-0.0039 2.97e-5,1.7e-5 -0.048858,-0.02933 -0.048828,-0.0293 2.99e-5,3e-5 -0.013702,-0.01762 -0.013672,-0.01758 6.04e-5,8.9e-5 -0.00983,-0.01968 -0.00977,-0.01953 1.229e-4,2.89e-4 -0.00505,-0.01435 -0.00586,-0.01758 -0.00124,-0.0049 -0.00187,-0.0051 -0.00195,-0.0059 z"
           id="path6311" /><path
           style="color:#000000;-inkscape-font-specification:'Berlin Sans FB';fill:#000000;stroke:none;-inkscape-stroke:none"
           d="m 10.130859,34.712891 c -0.09539,0 -0.2140171,0.01619 -0.3613277,0.04297 v -0.002 c -0.1677535,0.03012 -0.2835153,0.04732 -0.3320313,0.05078 -0.1559061,0.01265 -0.375665,0.02108 -0.65625,0.02539 l -0.00195,0.002 H 8.77735 c -0.06654,0.0027 -0.1267586,0.01094 -0.1835938,0.04883 -0.056835,0.03789 -0.094279,0.119011 -0.089844,0.185547 l 0.00586,0.08594 c 0.03455,0.708705 0.055842,1.24266 0.064453,1.595703 0.03905,1.366734 0.058594,2.311858 0.058594,2.833984 0,0.477712 -0.02262,1.199582 -0.070312,2.16211 v 0.002 c -0.043444,0.960117 -0.066406,1.679005 -0.066406,2.160156 0,0.06899 0.029571,0.146704 0.087891,0.193359 0.058319,0.04666 0.1285875,0.05859 0.1992187,0.05859 0.084948,0 0.2017745,-0.0064 0.3554688,-0.01953 0.1545611,-0.01288 0.2685427,-0.01953 0.3398437,-0.01953 0.066559,0 0.1779018,0.0067 0.328125,0.01953 0.1535949,0.01316 0.2685996,0.01953 0.3496096,0.01953 0.07718,0 0.162611,-0.04643 0.203125,-0.113281 0.04051,-0.06685 0.05078,-0.140588 0.05078,-0.22461 0,-0.669729 -0.0115,-1.672632 -0.0332,-3.009765 -0.0217,-1.340811 -0.0332,-2.344648 -0.0332,-3.011719 0,-0.0047 -4e-5,-0.0052 0,-0.0098 0.0058,0.0071 0.0057,0.0043 0.01172,0.01172 0.08479,0.105178 0.200379,0.252765 0.347656,0.44336 1.905228,2.504138 3.326754,4.388154 4.263672,5.65039 0.117075,0.154539 0.225716,0.263672 0.378906,0.263672 0.07712,0 0.185067,-0.0063 0.330078,-0.01953 0.141446,-0.01286 0.244874,-0.01953 0.306641,-0.01953 0.05692,0 0.153059,0.0067 0.28125,0.01953 0.132222,0.01322 0.231393,0.01953 0.304687,0.01953 0.08128,0 0.169775,-0.03434 0.220703,-0.101562 0.05093,-0.06723 0.06641,-0.149205 0.06641,-0.236329 0,-0.47384 -0.005,-1.18102 -0.01367,-2.123046 -0.0087,-0.94599 -0.01367,-1.654617 -0.01367,-2.126954 0,-0.500647 0.01804,-1.255482 0.05273,-2.261718 0.03474,-1.007639 0.05273,-1.761694 0.05273,-2.263672 0,-0.06728 -0.01733,-0.137947 -0.06836,-0.191406 -0.05102,-0.05346 -0.124387,-0.07422 -0.191406,-0.07422 -0.08893,0 -0.214328,0.0064 -0.380859,0.01953 -0.163329,0.01289 -0.285328,0.01953 -0.361328,0.01953 -0.0709,0 -0.190007,-0.0068 -0.347657,-0.01953 h -0.002 c -0.156674,-0.01302 -0.276834,-0.01953 -0.361328,-0.01953 -0.07718,0 -0.160657,0.04643 -0.201172,0.113281 -0.04051,0.06685 -0.05078,0.140588 -0.05078,0.224609 0,0.562751 0.01951,1.40794 0.05859,2.53711 0.04337,1.127682 0.06445,1.972118 0.06445,2.533203 0,0.493554 -0.01674,0.720475 -0.0332,0.935547 -0.01598,-0.0193 -0.02847,-0.03238 -0.04492,-0.05273 l -0.002,-0.002 c -2.055918,-2.706544 -3.583163,-4.745558 -4.580078,-6.115234 h -0.002 v -0.002 c -0.05018,-0.06615 -0.09442,-0.116681 -0.136719,-0.15625 -0.0423,-0.03957 -0.07661,-0.08203 -0.16211,-0.08203 z m 0,0.246093 c -0.04644,0 -0.02888,-0.0097 -0.0039,0.01367 0.02498,0.02336 0.06212,0.06723 0.107422,0.126953 0.999269,1.372867 2.527183,3.411453 4.583984,6.119141 v 0.002 l 0.002,0.002 c 0.09273,0.114814 0.178804,0.215322 0.259765,0.300781 l 0.169922,0.177735 0.04102,-0.242188 c 0.03428,-0.20568 0.04687,-0.618534 0.04687,-1.271484 0,-0.567384 -0.02298,-1.413715 -0.06641,-2.542969 h 0.002 c -0.03904,-1.127766 -0.05859,-1.970306 -0.05859,-2.527344 0,-0.05572 0.01003,-0.08414 0.01367,-0.0918 0.07164,2.77e-4 0.182947,0.005 0.333984,0.01758 0.162189,0.01315 0.284192,0.02148 0.369141,0.02148 0.08893,0 0.214328,-0.0083 0.380859,-0.02148 0.163329,-0.01289 0.285327,-0.01758 0.361328,-0.01758 0.02412,0 0.01913,0.0018 0.01367,-0.0039 -0.0055,-0.0057 0,-0.0048 0,0.02344 0,0.496282 -0.01804,1.249617 -0.05273,2.255859 -0.03474,1.007646 -0.05273,1.763237 -0.05273,2.269531 0,0.47384 0.005,1.182541 0.01367,2.128907 0.0087,0.941647 0.01367,1.648756 0.01367,2.121093 0,0.0561 -0.0123,0.0835 -0.01563,0.08789 -0.0033,0.0044 0.0018,0.0039 -0.02539,0.0039 -0.05692,0 -0.151108,-0.0048 -0.279297,-0.01758 -0.132224,-0.01322 -0.233348,-0.02148 -0.30664,-0.02148 -0.07712,0 -0.185067,0.0083 -0.330078,0.02148 -0.141447,0.01286 -0.244874,0.01758 -0.306641,0.01758 -0.0031,0 -0.08366,-0.0341 -0.183594,-0.166015 -0.938087,-1.263787 -2.358886,-3.146834 -4.263671,-5.650391 -0.147861,-0.191349 -0.264909,-0.341723 -0.351563,-0.449219 -0.08665,-0.107495 -0.134121,-0.16543 -0.177734,-0.205078 l -0.03516,-0.0332 h -0.04687 c -0.05282,0 -0.105406,0.03624 -0.128906,0.06836 -0.0235,0.03212 -0.0314,0.06235 -0.03906,0.09375 -0.01532,0.0628 -0.02149,0.134548 -0.02149,0.228516 0,0.66973 0.0115,1.674154 0.0332,3.015625 0.0217,1.336469 0.0332,2.338788 0.0332,3.005859 0,0.05556 -0.01,0.08401 -0.01367,0.0918 -0.06694,-2.17e-4 -0.1747178,-0.0049 -0.322266,-0.01758 -0.1535951,-0.01316 -0.2685998,-0.02148 -0.3496094,-0.02148 -0.084948,0 -0.2033903,0.0083 -0.3613281,0.02148 -0.1501241,0.01287 -0.2626834,0.01758 -0.3339844,0.01758 -0.037875,0 -0.050941,-0.0072 -0.046875,-0.0039 0.00407,0.0033 0.00586,0.01586 0.00586,-0.002 0,-0.473707 0.021092,-1.192112 0.064453,-2.150391 0.047793,-0.964549 0.072266,-1.688001 0.072266,-2.173828 0,-0.527855 -0.019572,-1.47373 -0.058594,-2.839844 v -0.002 c -0.00875,-0.35789 -0.029749,-0.89208 -0.064453,-1.603515 v -0.002 l -0.00391,-0.05273 c 0.00801,-0.0023 0.00945,-0.0046 0.033203,-0.0059 0.2836491,-0.0044 0.5066016,-0.01198 0.671875,-0.02539 0.07306,-0.0053 0.1855942,-0.02419 0.3554687,-0.05469 h 0.00195 c 0.1391468,-0.0253 0.2468702,-0.03711 0.3164062,-0.03711 z"
           id="path6313" /><path
           style="color:#000000;-inkscape-font-specification:'Berlin Sans FB';fill:#000000;stroke:none;-inkscape-stroke:none"
           d="m 22.298828,34.779297 c -0.207477,0 -0.514974,0.008 -0.923828,0.02539 -0.407116,0.01732 -0.711601,0.02539 -0.912109,0.02539 -0.237972,0 -0.593507,-0.0015 -1.066407,-0.0059 -0.468937,-0.0043 -0.821509,-0.0059 -1.05664,-0.0059 -0.07527,0 -0.148764,0.0135 -0.208985,0.06445 -0.06022,0.05096 -0.08729,0.134242 -0.08398,0.207032 l 0.002,0.002 0.0059,0.09766 c 0.09968,1.551535 0.148438,3.002372 0.148438,4.353516 0,0.473707 -0.02109,1.190601 -0.06445,2.144531 -0.03909,0.955685 -0.05859,1.670015 -0.05859,2.146484 0,0.08378 0.01611,0.163731 0.06836,0.228516 0.05225,0.06479 0.137158,0.0957 0.216797,0.0957 0.08101,0 0.196015,-0.0064 0.34961,-0.01953 0.150124,-0.01287 0.262683,-0.01953 0.333984,-0.01953 0.0814,0 0.21658,0.0098 0.396484,0.03125 l 0.002,0.002 c 0.188468,0.01753 0.330743,0.02539 0.429687,0.02539 0.05955,0 0.122886,-0.01301 0.173828,-0.05859 0.05094,-0.04558 0.07227,-0.114055 0.07227,-0.173829 0,-0.235441 -0.01641,-0.581558 -0.04687,-1.042968 -0.02597,-0.458915 -0.03711,-0.801945 -0.03711,-1.027344 0,-0.073 0.01511,-0.111823 0.02539,-0.125 0.01028,-0.01318 0.01538,-0.01953 0.05859,-0.01953 0.248205,0 0.622859,0.01154 1.121094,0.0332 h 0.002 c 0.504163,0.01738 0.880591,0.02539 1.130859,0.02539 1.032532,0 1.86037,-0.328271 2.453125,-0.984375 0.573925,-0.637192 0.859375,-1.48916 0.859375,-2.53125 0,-0.98495 -0.315043,-1.820121 -0.939453,-2.480468 -0.638189,-0.674143 -1.464184,-1.013672 -2.451172,-1.013672 z m 0,0.246094 c 0.931407,0 1.678992,0.309564 2.273438,0.9375 0.582183,0.61569 0.871093,1.377101 0.871093,2.310546 0,0.997835 -0.266419,1.780425 -0.794922,2.367188 -0.544393,0.602573 -1.290133,0.902344 -2.271484,0.902344 -0.244097,0 -0.619634,-0.0081 -1.121094,-0.02539 h -0.002 c -0.498738,-0.02166 -0.876034,-0.0332 -1.130859,-0.0332 -0.09567,0 -0.192793,0.03944 -0.251953,0.115234 -0.05916,0.0758 -0.07813,0.170437 -0.07813,0.275391 0,0.234669 0.01296,0.579795 0.03906,1.041016 v 0.002 c 0.02989,0.452631 0.04453,0.788908 0.04492,1.013672 -0.08335,0 -0.221454,-0.0082 -0.40625,-0.02539 l 0.0039,0.002 c -0.184676,-0.02198 -0.324887,-0.03516 -0.425781,-0.03516 -0.08495,0 -0.201774,0.0083 -0.355469,0.02148 -0.150223,0.01288 -0.261565,0.01758 -0.328125,0.01758 -0.02887,0 -0.02338,-0.0014 -0.02539,-0.0039 -0.002,-0.0025 -0.01367,-0.02345 -0.01367,-0.07422 0,-0.469708 0.01957,-1.182688 0.05859,-2.136718 0.04344,-0.955786 0.06445,-1.673146 0.06445,-2.154297 0,-1.357181 -0.05042,-2.813049 -0.150391,-4.369141 l -0.0059,-0.0957 v -0.002 c -5.13e-4,-0.0086 -8.69e-4,-0.0084 -0.0039,-0.0059 -0.0038,0.0032 0.0089,-0.0059 0.05078,-0.0059 0.233616,0 0.584175,0.0015 1.052734,0.0059 0.473278,0.0043 0.830855,0.0059 1.070313,0.0059 0.207477,0 0.513022,-0.008 0.921875,-0.02539 0.407116,-0.01732 0.713554,-0.02539 0.914062,-0.02539 z m -0.410156,1.048828 c -0.206773,0 -0.562947,0.01794 -1.076172,0.05273 -0.294139,0.01743 -0.516696,0.03487 -0.671875,0.05273 -0.07759,0.0089 -0.13826,0.01705 -0.185547,0.02734 -0.02364,0.0051 -0.04298,0.0111 -0.06445,0.01953 -0.01074,0.0042 -0.0213,0.0085 -0.03516,0.01758 -0.0069,0.0045 -0.01498,0.01117 -0.02344,0.01953 -0.0042,0.0042 -0.0092,0.0078 -0.01367,0.01367 -0.0029,0.0039 -0.0069,0.0088 -0.0098,0.01367 -0.0013,0.0022 -8.74e-4,0.0019 -0.002,0.0039 -4.5e-4,7.86e-4 -0.0019,0.0038 -0.002,0.0039 -0.01084,0.0213 -0.01314,0.03673 -0.01563,0.04883 -0.0029,0.01414 -0.0039,0.02671 -0.0059,0.04297 -0.0038,0.03252 -0.0068,0.07369 -0.0098,0.125 -0.0059,0.102623 -0.01181,0.246159 -0.01563,0.433594 -0.0076,0.37487 -0.01172,0.923617 -0.01172,1.644531 0,0.184241 0.005,0.457197 0.01367,0.822266 v 0.002 c 0.01299,0.363852 0.01953,0.637039 0.01953,0.816406 0,0.06958 0.04976,0.126304 0.09375,0.154297 0.04399,0.02799 0.08902,0.04402 0.144531,0.05664 h 0.002 0.002 c 0.273813,0.05477 0.922899,0.07422 2.009766,0.07422 0.633081,0 1.146841,-0.202622 1.509766,-0.607422 h 0.002 c 0.339619,-0.386142 0.505859,-0.90784 0.505859,-1.541015 0,-0.67315 -0.184333,-1.228686 -0.558594,-1.644532 -0.388465,-0.434711 -0.933198,-0.652343 -1.601562,-0.652343 z m 0,0.246093 c 0.616353,0 1.077271,0.189055 1.417969,0.570313 0.328862,0.365402 0.496093,0.85154 0.496093,1.480469 0,0.590021 -0.151999,1.04274 -0.445312,1.376953 -3.77e-4,4.29e-4 3.77e-4,0.0015 0,0.002 -0.314016,0.349163 -0.745013,0.523437 -1.326172,0.523437 -1.082186,0 -1.754635,-0.0277 -1.958984,-0.06836 h -0.002 c -0.0268,-0.0063 -0.03623,-0.01105 -0.04687,-0.01563 -6.73e-4,-0.183837 -0.0053,-0.435127 -0.01758,-0.779297 v -0.002 c -0.0086,-0.362789 -0.01367,-0.634543 -0.01367,-0.814453 0,-0.72005 0.0042,-1.267016 0.01172,-1.638672 0.0038,-0.185828 0.0081,-0.328751 0.01367,-0.425781 0.0021,-0.03726 0.0056,-0.06092 0.0078,-0.08398 0.03328,-0.0066 0.07734,-0.01398 0.142578,-0.02148 0.146469,-0.01686 0.368359,-0.03544 0.660156,-0.05273 0.511076,-0.03465 0.868015,-0.05078 1.060547,-0.05078 z"
           id="path6315" /></g><path
         style="fill:#000000;stroke-width:0.096"
         d="m 26.694949,1130.1481 c -1.554327,-0.3773 -1.917152,-0.504 -2.928,-1.0225 l -1.153824,-0.5917 -0.207953,-1.536 c -0.114374,-0.8448 -0.239358,-2.2488 -0.277742,-3.12 l -0.06979,-1.584 -0.979677,-1.056 c -1.474763,-1.5897 -3.100836,-3.6475 -3.209067,-4.0612 -0.224833,-0.8594 -0.481055,-1.9113 -0.522417,-2.1447 -0.02474,-0.1397 0.03989,-0.6365 0.143624,-1.104 0.390851,-1.7616 1.725023,-3.2911 3.569372,-4.0922 0.822333,-0.3572 0.968841,-0.3885 2.177649,-0.4667 0.7128,-0.046 1.4256,-0.058 1.584,-0.026 0.670987,0.1338 2.743694,0.8604 3.420237,1.199 l 0.732237,0.3664 0.207418,-1.3009 c 0.202116,-1.2677 0.219987,-1.3197 0.69933,-2.0352 0.270551,-0.4038 0.700906,-0.9777 0.956345,-1.2752 l 0.464433,-0.5411 v -0.9198 -0.9198 l -1.08,-0.027 -1.08,-0.027 -0.02724,-1.0903 c -0.03254,-1.3023 0.0051,-1.376 0.692121,-1.3557 0.267915,0.01 0.713933,0.011 0.991151,0.01 l 0.504034,-0.01 -0.02403,-0.984 -0.02403,-0.984 h 1.2 1.2 l 0.02736,0.984 0.02736,0.984 0.500641,0.01 c 0.275353,0 0.719845,0 0.98776,-0.01 0.687064,-0.02 0.724661,0.053 0.692122,1.3557 l -0.02724,1.0903 -1.08,0.027 -1.08,0.027 v 1.016 1.016 l 0.504,0.548 c 0.957177,1.0407 1.240192,1.5532 1.480788,2.6811 0.119732,0.5613 0.218937,1.1833 0.220454,1.3822 l 0.0028,0.3616 0.461968,-0.2341 c 0.254082,-0.1287 1.337094,-0.5006 2.40669,-0.8264 l 1.944723,-0.5923 1.464867,0.1932 1.464868,0.1932 1.096442,0.7169 c 1.192449,0.7797 1.28768,0.868 1.934793,1.7943 0.302346,0.4328 0.500214,0.8593 0.645747,1.392 0.302002,1.1054 0.301844,1.1158 -0.03953,2.6063 l -0.311097,1.3584 -1.133743,1.3776 c -0.623557,0.7578 -1.558989,1.8142 -2.078736,2.3478 l -0.944991,0.9701 -0.0026,1.1899 c -0.0035,1.5972 -0.32367,4.8703 -0.492555,5.0351 -0.07086,0.069 -0.625644,0.3842 -1.232844,0.6999 -1.014575,0.5276 -1.261006,0.6098 -3.042321,1.0145 l -1.93832,0.4404 -3.821679,-0.01 -3.821679,-0.01 z m 11.479277,-0.2628 c 1.679821,-0.3875 1.925493,-0.4719 2.93805,-1.0083 l 1.10495,-0.5853 0.115722,-1.1269 c 0.106564,-1.0377 0.288204,-3.9529 0.293797,-4.7153 0.002,-0.2751 0.124031,-0.4499 0.804193,-1.152 0.933296,-0.9633 3.205321,-3.6821 3.327848,-3.9822 0.04611,-0.113 0.202059,-0.7373 0.346546,-1.3874 l 0.262702,-1.182 -0.216731,-0.899 c -0.187751,-0.7788 -0.294381,-1.0084 -0.79741,-1.7176 -0.533018,-0.7513 -0.672664,-0.8776 -1.701416,-1.5387 l -1.120737,-0.7202 -1.397183,-0.1772 -1.397182,-0.1771 -1.982135,0.6009 c -1.090174,0.3304 -2.166269,0.7087 -2.391322,0.8406 -0.225053,0.1319 -0.458264,0.2093 -0.518245,0.1721 -0.05998,-0.037 -0.139393,-0.327 -0.176468,-0.6438 -0.03707,-0.3168 -0.151361,-0.9621 -0.25397,-1.434 -0.158856,-0.7305 -0.25619,-0.9515 -0.655389,-1.488 -0.257854,-0.3465 -0.644751,-0.8008 -0.859773,-1.0095 l -0.390948,-0.3795 0.0015,-1.1565 c 7.68e-4,-0.6361 0.03787,-1.2139 0.08236,-1.2841 0.05323,-0.084 0.257894,-0.1222 0.598529,-0.1118 0.284704,0.01 0.744443,0.012 1.021643,0.01 l 0.504001,-0.01 v -0.9569 -0.9568 l -1.08,-0.027 -1.08,-0.027 -0.048,-1.008 -0.048,-1.008 -0.980719,-0.027 -0.980718,-0.027 -0.02728,1.0353 -0.02728,1.0353 -1.08,0.027 -1.08,0.027 v 0.9568 0.9569 l 0.504,0.01 c 0.2772,0 0.746695,0 1.043322,-0.01 0.668695,-0.017 0.674112,-0.01 0.653922,1.3532 l -0.01528,1.0289 -0.335203,0.3201 c -0.184362,0.1761 -0.598791,0.709 -0.920952,1.1842 l -0.58575,0.864 -0.219034,1.3377 c -0.120469,0.7358 -0.265602,1.3665 -0.322518,1.4017 -0.05692,0.035 -0.478565,-0.1175 -0.936996,-0.3393 -0.45843,-0.2219 -1.385643,-0.5866 -2.060472,-0.8107 l -1.226963,-0.4073 -1.365037,0.038 c -1.329552,0.037 -1.388023,0.048 -2.249239,0.4101 -1.176031,0.4946 -2.19929,1.354 -2.885169,2.4232 -0.412885,0.6437 -0.517436,0.9029 -0.656247,1.627 l -0.165117,0.8613 0.309991,1.2467 0.309991,1.2467 1.198211,1.4823 c 0.659016,0.8152 1.585206,1.8722 2.058199,2.3488 l 0.859988,0.8667 0.053,1.3893 c 0.05434,1.4244 0.378295,4.4033 0.516824,4.7526 0.04777,0.1204 0.477099,0.3928 1.120971,0.7113 0.815819,0.4034 1.399708,0.6049 2.675555,0.9231 l 1.632,0.407 4.032,0.01 4.032,0.01 1.833101,-0.4229 z m -14.014841,-1.6429 c -0.08468,-0.085 -0.182007,-0.2656 -0.216272,-0.4021 -0.07419,-0.2957 0.01649,-0.3762 0.974012,-0.8654 0.543968,-0.2779 1.001225,-0.4052 2.4,-0.6683 l 1.728,-0.325 3.888,0.061 3.888,0.061 1.469282,0.3252 c 0.808104,0.1788 1.520904,0.3558 1.584,0.3934 0.572914,0.3413 1.122718,0.8507 1.122718,1.0403 0,0.4236 -0.183545,0.4567 -1.359194,0.2454 -0.598843,-0.1076 -2.446923,-0.3511 -4.106843,-0.5411 l -3.018037,-0.3455 -3.077963,0.3477 c -2.575765,0.2911 -3.892166,0.4995 -4.963848,0.786 -0.08684,0.023 -0.227171,-0.027 -0.311855,-0.1118 z m 1.140957,-0.3323 c 0.87474,-0.204 6.393187,-0.8781 7.200783,-0.8797 0.601983,0 6.029389,0.6368 7.227055,0.8495 1.170262,0.2079 1.292217,0.1058 0.560058,-0.4689 -0.495716,-0.389 -0.641683,-0.4449 -1.905971,-0.7294 -1.360879,-0.3063 -1.392319,-0.3087 -5.209142,-0.3998 l -3.84,-0.092 -1.847707,0.3369 c -1.658213,0.3023 -1.925041,0.3781 -2.601761,0.7398 -0.700012,0.3741 -0.747142,0.4185 -0.657623,0.619 0.116617,0.2612 0.06292,0.26 1.074308,0.024 z m 14.016783,-2.5061 c -0.3168,-0.045 -1.909135,-0.212 -3.538522,-0.3706 l -2.962522,-0.2884 -2.557478,0.1922 c -5.888626,0.4424 -6.105457,0.4544 -6.223059,0.3437 -0.0873,-0.082 -0.08356,-0.1774 0.01616,-0.4114 0.11949,-0.2803 0.223284,-0.3346 1.313581,-0.6876 0.651111,-0.2108 1.356639,-0.4268 1.567839,-0.48 0.2112,-0.053 1.8528,-0.1459 3.648,-0.206 3.194263,-0.1068 3.319379,-0.1039 5.856,0.1353 1.4256,0.1345 2.6568,0.2569 2.736,0.2721 0.273335,0.052 1.824,1.0438 1.824,1.1662 0,0.067 -0.079,0.1941 -0.175559,0.2815 -0.191245,0.1731 -0.569577,0.1864 -1.504441,0.053 z m 1.288513,-0.2211 c 0.09161,-0.1104 -0.03304,-0.2217 -0.684246,-0.611 l -0.796267,-0.4761 -2.88,-0.2391 c -2.80401,-0.2327 -2.962323,-0.2359 -6,-0.1199 l -3.12,0.1191 -1.367345,0.4481 c -1.005584,0.3295 -1.395912,0.5015 -1.475319,0.6498 -0.106058,0.1982 -0.09628,0.2008 0.551345,0.1443 0.362625,-0.032 2.311885,-0.1758 4.331687,-0.3203 l 3.67237,-0.2628 3.23963,0.3166 c 1.781798,0.1741 3.455632,0.349 3.719632,0.3886 0.264,0.04 0.52871,0.078 0.588246,0.085 0.05953,0.01 0.158655,-0.048 0.220267,-0.1222 z m -17.128513,-3.5561 c -0.354062,-0.1652 -0.883264,-0.636 -2.017,-1.7945 -2.88002,-2.9426 -2.625793,-2.6187 -2.870892,-3.6581 -0.118473,-0.5024 -0.202275,-1.0158 -0.186225,-1.1409 0.210078,-1.6374 0.232949,-1.7081 0.798631,-2.4689 0.413799,-0.5566 0.741987,-0.8678 1.354785,-1.2848 0.805262,-0.5479 0.814094,-0.5511 2.076815,-0.7503 l 1.268115,-0.2001 1.449159,0.2854 1.449159,0.2855 1.40815,1.1432 1.408151,1.1431 0.944813,1.6187 0.944814,1.6186 0.232475,1.9751 c 0.287286,2.4408 0.286917,2.3924 0.01905,2.4927 -0.257946,0.097 -7.097974,0.9766 -7.512,0.9664 -0.1584,0 -0.504,-0.1079 -0.768,-0.2311 z m 4.157296,-0.3918 c 4.624587,-0.5869 4.160556,-0.4907 4.101025,-0.8497 -0.02731,-0.1647 -0.139744,-1.0986 -0.249852,-2.0754 l -0.200197,-1.776 -0.93578,-1.6088 -0.935781,-1.6087 -1.369394,-1.1033 c -0.753166,-0.6067 -1.380986,-1.1032 -1.395154,-1.1032 -0.01417,0 -0.556041,-0.108 -1.204163,-0.24 -1.390568,-0.2832 -1.610532,-0.2894 -2.958094,-0.083 -0.990349,0.152 -1.053573,0.1765 -1.824154,0.7094 -0.533055,0.3686 -0.93443,0.7391 -1.208168,1.1153 -0.570422,0.7839 -0.595172,0.8438 -0.730426,1.7665 -0.110827,0.756 -0.103703,0.8911 0.0906,1.7188 l 0.210889,0.8983 2.058142,2.1211 c 2.01182,2.0735 2.281567,2.2952 3.094504,2.5442 0.01611,0 1.571313,-0.1867 3.456,-0.4259 z m -4.627524,-1.3542 c -0.945731,-0.8652 -2.86554,-3.0276 -3.09084,-3.4815 -0.0681,-0.1372 -0.148945,-0.6814 -0.179649,-1.2094 l -0.05583,-0.96 0.554272,-0.816 c 0.529182,-0.7791 0.592851,-0.836 1.406561,-1.2581 0.822137,-0.4264 0.890062,-0.4442 1.92,-0.5025 1.023547,-0.058 1.112268,-0.047 2.144945,0.264 0.972765,0.2929 1.157485,0.387 1.904721,0.9705 0.93811,0.7325 0.916781,0.7026 1.980301,2.7821 0.712412,1.393 0.801669,1.6298 0.95879,2.544 0.168868,0.9825 0.217082,1.536 0.1338,1.536 -0.02264,0 -1.372635,0.1984 -3,0.4409 -1.627366,0.2425 -3.136165,0.4634 -3.352888,0.4909 -0.385017,0.049 -0.415342,0.03 -1.324186,-0.8009 z m 4.454228,0.1013 c 1.6632,-0.2481 3.033703,-0.4583 3.045563,-0.4672 0.01186,-0.01 -0.06523,-0.5235 -0.171317,-1.1437 -0.185524,-1.0845 -0.227588,-1.1946 -1.102562,-2.8844 l -0.909681,-1.7567 -0.791002,-0.6112 c -0.653375,-0.5048 -0.958031,-0.6659 -1.751001,-0.926 -0.859011,-0.2817 -1.071088,-0.314 -2.016,-0.3078 l -1.056,0.01 -0.901243,0.4489 c -0.89872,0.4476 -0.902704,0.4512 -1.423481,1.2802 l -0.522239,0.8314 0.112682,0.9437 0.112681,0.9437 0.679351,0.817 c 0.373643,0.4493 1.26219,1.3922 1.974548,2.0954 1.019413,1.0062 1.337837,1.268 1.495449,1.2296 0.110138,-0.027 1.561052,-0.2518 3.224252,-0.4999 z m 9.140256,1.415 c -3.289055,-0.4188 -3.486604,-0.455 -3.534927,-0.6475 -0.02815,-0.1122 0.03766,-1.1055 0.146254,-2.2074 l 0.197437,-2.0033 1.12949,-1.8745 1.12949,-1.8745 1.684785,-1.1319 1.684786,-1.1319 1.147214,-0.1261 c 1.260448,-0.1386 1.227526,-0.1406 2.561673,0.152 l 0.934459,0.2049 1.225541,1.1555 c 0.674048,0.6355 1.259285,1.2102 1.300527,1.2773 0.04124,0.067 0.144658,0.4692 0.229814,0.8938 0.135154,0.6738 0.1388,0.8837 0.02869,1.6519 l -0.126142,0.8801 -0.979793,1.3032 c -1.690826,2.2489 -3.779249,3.9426 -4.84355,3.928 -0.2376,0 -1.999685,-0.2056 -3.915744,-0.4496 z m 4.806482,-0.028 c 0.856671,-0.4313 2.653812,-2.1448 3.766189,-3.5909 l 0.899977,-1.1699 0.148016,-0.848 c 0.136428,-0.7816 0.135032,-0.9111 -0.01783,-1.6537 l -0.165851,-0.8057 -1.250736,-1.1721 -1.250735,-1.1721 -1.06737,-0.224 c -1.014152,-0.2128 -1.123988,-0.2179 -2.202933,-0.1017 l -1.135564,0.1224 -1.65695,1.1041 -1.65695,1.1042 -1.092329,1.8444 -1.092328,1.8444 -0.194486,2.0057 c -0.106966,1.1031 -0.178942,2.0227 -0.159945,2.0434 0.03064,0.034 6.93358,0.9334 7.361829,0.9598 0.09391,0.01 0.439505,-0.1248 0.768,-0.2903 z m -3.867657,-1.1247 c -2.158309,-0.3649 -2.697803,-0.4872 -2.952196,-0.6692 -0.558396,-0.3994 -0.559151,-0.3908 0.223441,-2.5694 0.395544,-1.1011 0.78733,-2.106 0.870634,-2.2332 0.209548,-0.3198 1.676479,-1.9614 1.856287,-2.0773 0.222313,-0.1433 2.320914,-0.9969 2.594753,-1.0554 0.132,-0.028 0.7368,-0.013 1.344,0.033 1.027746,0.079 1.162889,0.1137 1.956596,0.5046 l 0.852595,0.42 0.553035,1.12 0.553034,1.1201 -0.186244,0.7998 c -0.102434,0.44 -0.256564,0.9079 -0.342513,1.04 -0.419618,0.6447 -2.186817,2.508 -3.059377,3.2256 -0.816765,0.6718 -1.034183,0.8049 -1.301825,0.797 -0.176716,-0.01 -1.509715,-0.2105 -2.96222,-0.456 z m 4.17047,-0.5763 c 0.581049,-0.4838 1.466434,-1.3658 2.05518,-2.0476 l 1.034351,-1.1977 0.172148,-0.8203 0.172148,-0.8203 -0.513689,-0.9948 -0.513689,-0.9948 -0.864,-0.4245 c -0.842378,-0.4139 -0.892147,-0.4256 -1.988729,-0.4691 l -1.124728,-0.044 -1.245072,0.4996 -1.245073,0.4996 -0.928871,1.055 -0.928872,1.0551 -0.708963,1.985 c -0.38993,1.0918 -0.709128,2.0356 -0.709327,2.0973 -1.92e-4,0.062 0.160129,0.2113 0.356288,0.3326 0.278115,0.1718 0.938739,0.3185 3,0.6657 1.453841,0.2449 2.71461,0.4517 2.801707,0.4594 0.0871,0.01 0.617735,-0.3683 1.179191,-0.8357 z m -9.31732,-3.832 c -0.250482,-0.1632 -0.825915,-1.5523 -1.463139,-3.5322 l -0.681681,-2.1179 0.134879,-0.8332 c 0.11887,-0.7343 0.184189,-0.8978 0.550295,-1.3767 0.330781,-0.4328 0.520034,-0.583 0.928926,-0.7373 0.479581,-0.181 0.549329,-0.1845 1.05561,-0.053 0.473884,0.1234 0.59651,0.2088 0.974489,0.6789 0.301261,0.3747 0.488186,0.7342 0.616374,1.1855 l 0.183984,0.6478 -0.447713,1.8817 c -0.374071,1.5723 -0.5329,2.0555 -0.965639,2.9378 -0.589375,1.2017 -0.734339,1.4173 -0.886385,1.3182 z m 0.664576,-1.4382 c 0.462552,-0.9479 0.618444,-1.4141 0.976535,-2.9204 l 0.426115,-1.7924 -0.226035,-0.6901 c -0.27993,-0.8546 -0.822951,-1.4623 -1.447071,-1.6195 -1.145626,-0.2885 -2.241741,1.0029 -2.252351,2.6537 -0.004,0.6156 1.69336,5.4967 1.911406,5.4967 0.03354,0 0.30867,-0.5076 0.611401,-1.128 z m -0.82038,-1.536 c -0.08213,-0.092 -0.30063,-0.6534 -0.485552,-1.2468 l -0.336221,-1.0787 0.127127,-0.9102 c 0.06992,-0.5006 0.154861,-0.9551 0.18876,-1.0099 0.06835,-0.1106 0.618871,-0.4216 0.769459,-0.4347 0.128906,-0.011 0.548315,0.2505 0.690583,0.431 0.06302,0.08 0.162431,0.3418 0.220913,0.5819 0.217537,0.8931 -0.471527,3.8354 -0.898235,3.8354 -0.07013,0 -0.194702,-0.076 -0.276834,-0.168 z m 0.461268,-0.419 c 0.08504,-0.1645 0.251279,-0.8713 0.369412,-1.5707 0.191332,-1.1328 0.200619,-1.3202 0.08505,-1.7166 -0.08028,-0.2753 -0.222437,-0.5057 -0.372901,-0.6043 -0.223158,-0.1462 -0.269342,-0.1468 -0.561478,-0.01 -0.313895,0.1497 -0.319961,0.1649 -0.436531,1.095 l -0.118214,0.9431 0.351293,1.08 c 0.193212,0.594 0.39122,1.08 0.44002,1.08 0.0488,0 0.158307,-0.1346 0.243352,-0.299 z"
         id="path6148" /></g></g></svg>
