999
"DXF R12 Output" (www.mydxf.blogspot.com)
 0 
SECTION
 2 
HEADER
 9 
$ACADVER
 1 
AC1009
 9 
$EXTMIN
 10 
 0 
 20 
 0 
 9 
$EXTMAX
 10 
 8.5 
 20 
 11 
 0 
ENDSEC
 0 
SECTION
 2 
ENTITIES
0
LINE
8
Layer 1
10
1.472740
20
2.297550
11
1.472740
21
1.363420
0
LINE
8
Layer 1
10
1.472740
20
1.363420
11
1.087170
21
1.363420
0
LINE
8
Layer 1
10
1.087170
20
1.363420
11
0.570419
21
1.490620
0
LINE
8
Layer 1
10
0.570419
20
1.490620
11
0.439239
21
1.617820
0
LINE
8
Layer 1
10
0.439239
20
1.617820
11
0.220614
21
1.403170
0
LINE
8
Layer 1
10
0.220614
20
1.403170
11
0.001988
21
1.144800
0
LINE
8
Layer 1
10
0.001988
20
1.144800
11
0.192788
21
0.914248
0
LINE
8
Layer 1
10
0.192788
20
0.914248
11
0.383588
21
0.727423
0
LINE
8
Layer 1
10
0.383588
20
0.727423
11
1.142820
21
0.727423
0
LINE
8
Layer 1
10
1.142820
20
0.727423
11
1.902040
21
0.727423
0
LINE
8
Layer 1
10
1.902040
20
0.727423
11
2.005390
21
0.862573
0
LINE
8
Layer 1
10
2.005390
20
0.862573
11
2.108740
21
1.001698
0
LINE
8
Layer 1
10
2.108740
20
1.001698
11
2.108740
21
2.114700
0
LINE
8
Layer 1
10
2.108740
20
2.114700
11
2.108740
21
3.231680
0
LINE
8
Layer 1
10
2.108740
20
3.231680
11
1.790740
21
3.231680
0
LINE
8
Layer 1
10
1.790740
20
3.231680
11
1.472740
21
3.231680
0
LINE
8
Layer 1
10
1.472740
20
3.231680
11
1.472740
21
2.297550
0
LINE
8
Layer 1
10
1.949740
20
2.070980
11
1.874712
21
0.959465
0
LINE
8
Layer 1
10
1.874712
20
0.959465
11
1.636152
21
0.850710
0
LINE
8
Layer 1
10
1.636152
20
0.850710
11
1.134870
21
0.846673
0
LINE
8
Layer 1
10
1.134870
20
0.846673
11
0.494889
21
0.846673
0
LINE
8
Layer 1
10
0.494889
20
0.846673
11
0.347814
21
0.997723
0
LINE
8
Layer 1
10
0.347814
20
0.997723
11
0.200739
21
1.148773
0
LINE
8
Layer 1
10
0.200739
20
1.148773
11
0.319989
21
1.264048
0
LINE
8
Layer 1
10
0.319989
20
1.264048
11
0.439239
21
1.379323
0
LINE
8
Layer 1
10
0.439239
20
1.379323
11
0.530664
21
1.291873
0
LINE
8
Layer 1
10
0.530664
20
1.291873
11
1.126916
21
1.204423
0
LINE
8
Layer 1
10
1.126916
20
1.204423
11
1.631740
21
1.204420
0
LINE
8
Layer 1
10
1.631740
20
1.204420
11
1.631740
21
2.158430
0
LINE
8
Layer 1
10
1.631740
20
2.158430
11
1.631740
21
3.112430
0
LINE
8
Layer 1
10
1.631740
20
3.112430
11
1.790740
21
3.112430
0
LINE
8
Layer 1
10
1.790740
20
3.112430
11
1.949740
21
3.112430
0
LINE
8
Layer 1
10
1.949740
20
3.112430
11
1.949740
21
2.070980
0
LINE
8
Layer 1
10
2.347260
20
1.979300
11
2.347260
21
0.727173
0
LINE
8
Layer 1
10
2.347260
20
0.727173
11
2.665260
21
0.727173
0
LINE
8
Layer 1
10
2.665260
20
0.727173
11
2.983260
21
0.727173
0
LINE
8
Layer 1
10
2.983260
20
0.727173
11
2.983260
21
1.204170
0
LINE
8
Layer 1
10
2.983260
20
1.204170
11
2.983260
21
1.681170
0
LINE
8
Layer 1
10
2.983260
20
1.681170
11
3.440380
21
1.681170
0
LINE
8
Layer 1
10
3.440380
20
1.681170
11
3.897510
21
1.681170
0
LINE
8
Layer 1
10
3.897510
20
1.681170
11
3.897510
21
1.092870
0
LINE
8
Layer 1
10
3.897510
20
1.092870
11
3.897510
21
0.504572
0
LINE
8
Layer 1
10
3.897510
20
0.504572
11
4.108186
21
0.349547
0
LINE
8
Layer 1
10
4.108186
20
0.349547
11
4.446062
21
0.099121
0
LINE
8
Layer 1
10
4.446062
20
0.099121
11
4.573262
21
0.003721
0
LINE
8
Layer 1
10
4.573262
20
0.003721
11
4.573260
21
1.617570
0
LINE
8
Layer 1
10
4.573260
20
1.617570
11
4.573260
21
3.231430
0
LINE
8
Layer 1
10
4.573260
20
3.231430
11
4.235390
21
3.231430
0
LINE
8
Layer 1
10
4.235390
20
3.231430
11
3.897510
21
3.231430
0
LINE
8
Layer 1
10
3.897510
20
3.231430
11
3.897510
21
2.794180
0
LINE
8
Layer 1
10
3.897510
20
2.794180
11
3.897510
21
2.356930
0
LINE
8
Layer 1
10
3.897510
20
2.356930
11
3.440380
21
2.356930
0
LINE
8
Layer 1
10
3.440380
20
2.356930
11
2.983260
21
2.356930
0
LINE
8
Layer 1
10
2.983260
20
2.356930
11
2.983260
21
2.794180
0
LINE
8
Layer 1
10
2.983260
20
2.794180
11
2.983260
21
3.231430
0
LINE
8
Layer 1
10
2.983260
20
3.231430
11
2.665260
21
3.231430
0
LINE
8
Layer 1
10
2.665260
20
3.231430
11
2.347260
21
3.231430
0
LINE
8
Layer 1
10
2.347260
20
3.231430
11
2.347260
21
1.979300
0
LINE
8
Layer 1
10
2.824260
20
2.635180
11
2.824260
21
2.197930
0
LINE
8
Layer 1
10
2.824260
20
2.197930
11
3.440380
21
2.197930
0
LINE
8
Layer 1
10
3.440380
20
2.197930
11
4.056510
21
2.197930
0
LINE
8
Layer 1
10
4.056510
20
2.197930
11
4.056510
21
2.635180
0
LINE
8
Layer 1
10
4.056510
20
2.635180
11
4.056510
21
3.072430
0
LINE
8
Layer 1
10
4.056510
20
3.072430
11
4.235390
21
3.072430
0
LINE
8
Layer 1
10
4.235390
20
3.072430
11
4.414260
21
3.072430
0
LINE
8
Layer 1
10
4.414260
20
3.072430
11
4.414260
21
1.740800
0
LINE
8
Layer 1
10
4.414260
20
1.740800
11
4.394385
21
0.409170
0
LINE
8
Layer 1
10
4.394385
20
0.409170
11
4.215510
21
0.512520
0
LINE
8
Layer 1
10
4.215510
20
0.512520
11
4.056510
21
0.619845
0
LINE
8
Layer 1
10
4.056510
20
0.619845
11
4.056510
21
1.232000
0
LINE
8
Layer 1
10
4.056510
20
1.232000
11
4.056510
21
1.844150
0
LINE
8
Layer 1
10
4.056510
20
1.844150
11
3.452308
21
1.832225
0
LINE
8
Layer 1
10
3.452308
20
1.832225
11
2.844131
21
1.820300
0
LINE
8
Layer 1
10
2.844131
20
1.820300
11
2.832206
21
1.355224
0
LINE
8
Layer 1
10
2.832206
20
1.355224
11
2.820281
21
0.886173
0
LINE
8
Layer 1
10
2.820281
20
0.886173
11
2.665260
21
0.886173
0
LINE
8
Layer 1
10
2.665260
20
0.886173
11
2.506260
21
0.886173
0
LINE
8
Layer 1
10
2.506260
20
0.886173
11
2.506260
21
1.979300
0
LINE
8
Layer 1
10
2.506260
20
1.979300
11
2.506260
21
3.072430
0
LINE
8
Layer 1
10
2.506260
20
3.072430
11
2.665260
21
3.072430
0
LINE
8
Layer 1
10
2.665260
20
3.072430
11
2.824260
21
3.072430
0
LINE
8
Layer 1
10
2.824260
20
3.072430
11
2.824260
21
2.635180
0
LINE
8
Layer 1
10
4.772010
20
1.979300
11
4.772010
21
0.727173
0
LINE
8
Layer 1
10
4.772010
20
0.727173
11
5.090010
21
0.727173
0
LINE
8
Layer 1
10
5.090010
20
0.727173
11
5.408010
21
0.727173
0
LINE
8
Layer 1
10
5.408010
20
0.727173
11
5.408010
21
1.204170
0
LINE
8
Layer 1
10
5.408010
20
1.204170
11
5.408010
21
1.681170
0
LINE
8
Layer 1
10
5.408010
20
1.681170
11
5.865140
21
1.681170
0
LINE
8
Layer 1
10
5.865140
20
1.681170
11
6.322270
21
1.681170
0
LINE
8
Layer 1
10
6.322270
20
1.681170
11
6.322270
21
1.096850
0
LINE
8
Layer 1
10
6.322270
20
1.096850
11
6.326245
21
0.508549
0
LINE
8
Layer 1
10
6.326245
20
0.508549
11
6.660146
21
0.258123
0
LINE
8
Layer 1
10
6.660146
20
0.258123
11
6.998022
21
0.011672
0
LINE
8
Layer 1
10
6.998022
20
0.011672
11
6.998020
21
1.621550
0
LINE
8
Layer 1
10
6.998020
20
1.621550
11
6.998020
21
3.231430
0
LINE
8
Layer 1
10
6.998020
20
3.231430
11
6.660140
21
3.231430
0
LINE
8
Layer 1
10
6.660140
20
3.231430
11
6.322270
21
3.231430
0
LINE
8
Layer 1
10
6.322270
20
3.231430
11
6.322270
21
2.794180
0
LINE
8
Layer 1
10
6.322270
20
2.794180
11
6.322270
21
2.356930
0
LINE
8
Layer 1
10
6.322270
20
2.356930
11
5.865140
21
2.356930
0
LINE
8
Layer 1
10
5.865140
20
2.356930
11
5.408010
21
2.356930
0
LINE
8
Layer 1
10
5.408010
20
2.356930
11
5.408010
21
2.794180
0
LINE
8
Layer 1
10
5.408010
20
2.794180
11
5.408010
21
3.231430
0
LINE
8
Layer 1
10
5.408010
20
3.231430
11
5.090010
21
3.231430
0
LINE
8
Layer 1
10
5.090010
20
3.231430
11
4.772010
21
3.231430
0
LINE
8
Layer 1
10
4.772010
20
3.231430
11
4.772010
21
1.979300
0
LINE
8
Layer 1
10
5.249011
20
2.635177
11
5.249010
21
2.197930
0
LINE
8
Layer 1
10
5.249010
20
2.197930
11
5.865140
21
2.197930
0
LINE
8
Layer 1
10
5.865140
20
2.197930
11
6.481270
21
2.197930
0
LINE
8
Layer 1
10
6.481270
20
2.197930
11
6.481270
21
2.635180
0
LINE
8
Layer 1
10
6.481270
20
2.635180
11
6.481270
21
3.072430
0
LINE
8
Layer 1
10
6.481270
20
3.072430
11
6.660140
21
3.072430
0
LINE
8
Layer 1
10
6.660140
20
3.072430
11
6.839020
21
3.072430
0
LINE
8
Layer 1
10
6.839020
20
3.072430
11
6.839020
21
1.740800
0
LINE
8
Layer 1
10
6.839020
20
1.740800
11
6.819145
21
0.409170
0
LINE
8
Layer 1
10
6.819145
20
0.409170
11
6.640270
21
0.512520
0
LINE
8
Layer 1
10
6.640270
20
0.512520
11
6.481270
21
0.619845
0
LINE
8
Layer 1
10
6.481270
20
0.619845
11
6.481270
21
1.232000
0
LINE
8
Layer 1
10
6.481270
20
1.232000
11
6.481270
21
1.844150
0
LINE
8
Layer 1
10
6.481270
20
1.844150
11
5.877068
21
1.832225
0
LINE
8
Layer 1
10
5.877068
20
1.832225
11
5.268891
21
1.820300
0
LINE
8
Layer 1
10
5.268891
20
1.820300
11
5.256966
21
1.355224
0
LINE
8
Layer 1
10
5.256966
20
1.355224
11
5.245041
21
0.886173
0
LINE
8
Layer 1
10
5.245041
20
0.886173
11
5.090010
21
0.886173
0
LINE
8
Layer 1
10
5.090010
20
0.886173
11
4.931010
21
0.886173
0
LINE
8
Layer 1
10
4.931010
20
0.886173
11
4.931010
21
1.979300
0
LINE
8
Layer 1
10
4.931010
20
1.979300
11
4.931010
21
3.072430
0
LINE
8
Layer 1
10
4.931010
20
3.072430
11
5.090010
21
3.072430
0
LINE
8
Layer 1
10
5.090010
20
3.072430
11
5.249010
21
3.072430
0
LINE
8
Layer 1
10
5.249010
20
3.072430
11
5.249011
21
2.635177
 0 
ENDSEC
 0 
EOF