999
"DXF R12 Output" (www.mydxf.blogspot.com)
 0 
SECTION
 2 
HEADER
 9 
$ACADVER
 1 
AC1009
 9 
$EXTMIN
 10 
 0 
 20 
 0 
 9 
$EXTMAX
 10 
 8.5 
 20 
 11 
 0 
ENDSEC
 0 
SECTION
 2 
ENTITIES
0
LINE
8
Layer 1
10
3.000000
20
118.000000
11
-3.000000
21
112.000000
0
LINE
8
Layer 1
10
0.000000
20
120.000000
11
0.000000
21
110.000000
0
LINE
8
Layer 1
10
8.000000
20
111.000000
11
4.000000
21
107.000000
0
LINE
8
Layer 1
10
6.000000
20
113.000000
11
2.000000
21
109.000000
0
LINE
8
Layer 1
10
4.000000
20
115.000000
11
0.000000
21
111.000000
0
LINE
8
Layer 1
10
3.000000
20
118.000000
11
-3.000000
21
112.000000
0
LINE
8
Layer 1
10
0.000000
20
120.000000
11
0.000000
21
110.000000
0
LINE
8
Layer 1
10
8.000000
20
111.000000
11
4.000000
21
107.000000
0
LINE
8
Layer 1
10
6.000000
20
113.000000
11
2.000000
21
109.000000
0
LINE
8
Layer 1
10
4.000000
20
115.000000
11
0.000000
21
111.000000
0
LINE
8
Layer 1
10
0.120500
20
114.879000
11
24.879500
21
114.879000
0
LINE
8
Layer 1
10
24.879500
20
114.879000
11
24.879500
21
8.199380
0
LINE
8
Layer 1
10
24.879500
20
8.199380
11
0.120500
21
8.199380
0
LINE
8
Layer 1
10
0.120500
20
8.199380
11
0.120500
21
114.879000
0
LINE
8
Layer 1
10
22.913000
20
100.064000
11
22.712038
21
100.814000
0
LINE
8
Layer 1
10
22.712038
20
100.814000
11
22.163000
21
101.363038
0
LINE
8
Layer 1
10
22.163000
20
101.363038
11
21.413000
21
101.564000
0
LINE
8
Layer 1
10
21.413000
20
101.564000
11
20.663000
21
101.363038
0
LINE
8
Layer 1
10
20.663000
20
101.363038
11
20.113962
21
100.814000
0
LINE
8
Layer 1
10
20.113962
20
100.814000
11
19.913000
21
100.064000
0
LINE
8
Layer 1
10
19.913000
20
100.064000
11
20.113962
21
99.314000
0
LINE
8
Layer 1
10
20.113962
20
99.314000
11
20.663000
21
98.764962
0
LINE
8
Layer 1
10
20.663000
20
98.764962
11
21.413000
21
98.564000
0
LINE
8
Layer 1
10
21.413000
20
98.564000
11
22.163000
21
98.764962
0
LINE
8
Layer 1
10
22.163000
20
98.764962
11
22.712038
21
99.314000
0
LINE
8
Layer 1
10
22.712038
20
99.314000
11
22.913000
21
100.064000
0
LINE
8
Layer 1
10
22.913000
20
100.064000
11
22.913000
21
100.064000
0
LINE
8
Layer 1
10
5.086970
20
100.064000
11
4.886008
21
100.814000
0
LINE
8
Layer 1
10
4.886008
20
100.814000
11
4.336970
21
101.363038
0
LINE
8
Layer 1
10
4.336970
20
101.363038
11
3.586970
21
101.564000
0
LINE
8
Layer 1
10
3.586970
20
101.564000
11
2.836970
21
101.363038
0
LINE
8
Layer 1
10
2.836970
20
101.363038
11
2.287932
21
100.814000
0
LINE
8
Layer 1
10
2.287932
20
100.814000
11
2.086970
21
100.064000
0
LINE
8
Layer 1
10
2.086970
20
100.064000
11
2.287932
21
99.314000
0
LINE
8
Layer 1
10
2.287932
20
99.314000
11
2.836970
21
98.764962
0
LINE
8
Layer 1
10
2.836970
20
98.764962
11
3.586970
21
98.564000
0
LINE
8
Layer 1
10
3.586970
20
98.564000
11
4.336970
21
98.764962
0
LINE
8
Layer 1
10
4.336970
20
98.764962
11
4.886008
21
99.314000
0
LINE
8
Layer 1
10
4.886008
20
99.314000
11
5.086970
21
100.064000
0
LINE
8
Layer 1
10
5.086970
20
100.064000
11
5.086970
21
100.064000
0
LINE
8
Layer 1
10
16.500000
20
96.683900
11
16.500000
21
103.447000
0
LINE
8
Layer 1
10
8.500000
20
96.683900
11
8.500000
21
103.447000
0
LINE
8
Layer 1
10
16.500000
20
105.314000
11
16.500000
21
94.814400
0
LINE
8
Layer 1
10
16.500000
20
94.814400
11
8.500000
21
94.814400
0
LINE
8
Layer 1
10
8.500000
20
94.814400
11
8.500000
21
105.314000
0
LINE
8
Layer 1
10
8.500000
20
105.314000
11
16.500000
21
105.314000
0
LINE
8
Layer 1
10
16.500000
20
94.813300
11
16.500000
21
100.065000
0
LINE
8
Layer 1
10
8.500000
20
94.813300
11
8.500000
21
100.065000
0
LINE
8
Layer 1
10
8.500000
20
94.814400
11
8.638462
21
94.162106
0
LINE
8
Layer 1
10
8.638462
20
94.162106
11
9.035898
21
93.564400
0
LINE
8
Layer 1
10
9.035898
20
93.564400
11
9.665386
21
93.050428
0
LINE
8
Layer 1
10
9.665386
20
93.050428
11
10.500000
21
92.649336
0
LINE
8
Layer 1
10
10.500000
20
92.649336
11
11.473076
21
92.398134
0
LINE
8
Layer 1
10
11.473076
20
92.398134
11
12.500000
21
92.314400
0
LINE
8
Layer 1
10
12.500000
20
92.314400
11
13.526924
21
92.398134
0
LINE
8
Layer 1
10
13.526924
20
92.398134
11
14.500000
21
92.649336
0
LINE
8
Layer 1
10
14.500000
20
92.649336
11
15.334614
21
93.050428
0
LINE
8
Layer 1
10
15.334614
20
93.050428
11
15.964102
21
93.564400
0
LINE
8
Layer 1
10
15.964102
20
93.564400
11
16.361538
21
94.162106
0
LINE
8
Layer 1
10
16.361538
20
94.162106
11
16.500000
21
94.814400
0
LINE
8
Layer 1
10
16.500000
20
105.314000
11
16.361538
21
105.966294
0
LINE
8
Layer 1
10
16.361538
20
105.966294
11
15.964102
21
106.564000
0
LINE
8
Layer 1
10
15.964102
20
106.564000
11
15.334614
21
107.077972
0
LINE
8
Layer 1
10
15.334614
20
107.077972
11
14.500000
21
107.479064
0
LINE
8
Layer 1
10
14.500000
20
107.479064
11
13.526924
21
107.730266
0
LINE
8
Layer 1
10
13.526924
20
107.730266
11
12.500000
21
107.814000
0
LINE
8
Layer 1
10
12.500000
20
107.814000
11
11.473076
21
107.730266
0
LINE
8
Layer 1
10
11.473076
20
107.730266
11
10.500000
21
107.479064
0
LINE
8
Layer 1
10
10.500000
20
107.479064
11
9.665386
21
107.077972
0
LINE
8
Layer 1
10
9.665386
20
107.077972
11
9.035898
21
106.564000
0
LINE
8
Layer 1
10
9.035898
20
106.564000
11
8.638462
21
105.966294
0
LINE
8
Layer 1
10
8.638462
20
105.966294
11
8.500000
21
105.314000
0
LINE
8
Layer 1
10
11.105800
20
57.499600
11
11.211924
21
58.033139
0
LINE
8
Layer 1
10
11.211924
20
58.033139
11
11.514149
21
58.485451
0
LINE
8
Layer 1
10
11.514149
20
58.485451
11
11.966461
21
58.787676
0
LINE
8
Layer 1
10
11.966461
20
58.787676
11
12.500000
21
58.893800
0
LINE
8
Layer 1
10
12.500000
20
58.893800
11
13.033539
21
58.787676
0
LINE
8
Layer 1
10
13.033539
20
58.787676
11
13.485851
21
58.485451
0
LINE
8
Layer 1
10
13.485851
20
58.485451
11
13.788076
21
58.033139
0
LINE
8
Layer 1
10
13.788076
20
58.033139
11
13.894200
21
57.499600
0
LINE
8
Layer 1
10
13.894200
20
57.499600
11
13.788076
21
56.966061
0
LINE
8
Layer 1
10
13.788076
20
56.966061
11
13.485851
21
56.513749
0
LINE
8
Layer 1
10
13.485851
20
56.513749
11
13.033539
21
56.211524
0
LINE
8
Layer 1
10
13.033539
20
56.211524
11
12.500000
21
56.105400
0
LINE
8
Layer 1
10
12.500000
20
56.105400
11
11.966461
21
56.211524
0
LINE
8
Layer 1
10
11.966461
20
56.211524
11
11.514149
21
56.513749
0
LINE
8
Layer 1
10
11.514149
20
56.513749
11
11.211924
21
56.966061
0
LINE
8
Layer 1
10
11.211924
20
56.966061
11
11.105800
21
57.499600
0
LINE
8
Layer 1
10
11.105800
20
57.499600
11
11.105800
21
57.499600
0
LINE
8
Layer 1
10
4.478300
20
52.356600
11
20.521600
21
52.356600
0
LINE
8
Layer 1
10
20.521600
20
52.356600
11
20.521600
21
14.833300
0
LINE
8
Layer 1
10
20.521600
20
14.833300
11
4.478300
21
14.833300
0
LINE
8
Layer 1
10
4.478300
20
14.833300
11
4.478300
21
52.356600
0
LINE
8
Layer 1
10
7.571850
20
16.183100
11
17.428100
21
16.183100
0
LINE
8
Layer 1
10
17.428100
20
16.183100
11
17.428100
21
14.726800
0
LINE
8
Layer 1
10
17.428100
20
14.726800
11
7.571850
21
14.726800
0
LINE
8
Layer 1
10
7.571850
20
14.726800
11
7.571850
21
16.183100
 0 
ENDSEC
 0 
EOF