0
SECTION
2
HEADER
9
$INSUNITS
70
4
9
$ACADVER
1
AC1014
9
$HANDSEED
5
FFFF
0
ENDSEC
0
SECTION
2
TABLES
0
TABLE
2
VPORT
5
8
100
AcDbSymbolTable
0
ENDTAB
0
TABLE
2
LTYPE
5
5
100
AcDbSymbolTable
0
LTYPE
5
14
100
AcDbSymbolTableRecord
100
AcDbLinetypeTableRecord
2
BYBLOCK
70
0
0
LTYPE
5
15
100
AcDbSymbolTableRecord
100
AcDbLinetypeTableRecord
2
BYLAYER
70
0
0
ENDTAB
0
TABLE
2
LAYER
5
2
100
AcDbSymbolTable
70
2
0
LAYER
5
50
100
AcDbSymbolTableRecord
100
AcDbLayerTableRecord
2
0
70
0
6
CONTINUOUS
0
ENDTAB
0
TABLE
2
STYLE
5
3
100
AcDbSymbolTable
70
1
0
STYLE
5
11
100
AcDbSymbolTableRecord
100
AcDbTextStyleTableRecord
2
STANDARD
70
0
0
ENDTAB
0
TABLE
2
VIEW
5
6
100
AcDbSymbolTable
70
0
0
ENDTAB
0
TABLE
2
UCS
5
7
100
AcDbSymbolTable
70
0
0
ENDTAB
0
TABLE
2
APPID
5
9
100
AcDbSymbolTable
70
2
0
APPID
5
12
100
AcDbSymbolTableRecord
100
AcDbRegAppTableRecord
2
ACAD
70
0
0
ENDTAB
0
TABLE
2
DIMSTYLE
5
A
100
AcDbSymbolTable
70
1
0
ENDTAB
0
TABLE
2
BLOCK_RECORD
5
1
100
AcDbSymbolTable
70
1
0
BLOCK_RECORD
5
1F
100
AcDbSymbolTableRecord
100
AcDbBlockTableRecord
2
*MODEL_SPACE
0
BLOCK_RECORD
5
1B
100
AcDbSymbolTableRecord
100
AcDbBlockTableRecord
2
*PAPER_SPACE
0
ENDTAB
0
ENDSEC
0
SECTION
2
BLOCKS
0
BLOCK
5
20
100
AcDbEntity
100
AcDbBlockBegin
2
*MODEL_SPACE
0
ENDBLK
5
21
100
AcDbEntity
100
AcDbBlockEnd
0
BLOCK
5
1C
100
AcDbEntity
100
AcDbBlockBegin
2
*PAPER_SPACE
0
ENDBLK
5
1D
100
AcDbEntity
100
AcDbBlockEnd
0
ENDSEC
0
SECTION
2
ENTITIES
0
LWPOLYLINE
5
100
100
AcDbEntity
8
0
100
AcDbPolyline
90
8
70
1
43
0.0
10
-8.884036779916558
20
3.5021395054146423
10
8.8840367799165598
20
3.5021395054146423
42
-0.41421356237309576
10
11.884036779916556
20
0.50213950541464103
10
11.884036779916558
20
-0.26054909104510265
42
-0.41421356237309492
10
8.884036779916558
20
-3.2605490910451018
10
-8.8840367799165563
20
-3.2605490910451032
42
-0.41421356237309548
10
-11.884036779916558
20
-0.2605490910451036
10
-11.884036779916558
20
0.5021395054146427
42
-0.41421356237309509
0
LINE
5
101
100
AcDbEntity
8
0
100
AcDbLine
10
0
20
-3.2605490910451023
30
0
11
-11.884036779916558
21
3.5021395054146423
31
0
0
LINE
5
102
100
AcDbEntity
8
0
100
AcDbLine
10
0
20
3.5021395054146423
30
0
11
-11.884036779916558
21
-3.2605490910451032
31
0
0
LINE
5
103
100
AcDbEntity
8
0
100
AcDbLine
10
11.884036779916558
20
-3.2605490910451018
30
0
11
0
21
3.5021395054146423
31
0
0
LINE
5
104
100
AcDbEntity
8
0
100
AcDbLine
10
11.884036779916558
20
3.5021395054146423
30
0
11
0
21
-3.2605490910451023
31
0
0
LINE
5
105
100
AcDbEntity
8
0
100
AcDbLine
10
5.942018389958279
20
0.12079520718476955
30
0
11
5.942018389958279
21
-3.2605490910451018
31
0
0
LINE
5
106
100
AcDbEntity
8
0
100
AcDbLine
10
5.942018389958279
20
0.12079520718476955
30
0
11
5.942018389958279
21
3.5021395054146423
31
0
0
LINE
5
107
100
AcDbEntity
8
0
100
AcDbLine
10
-5.942018389958279
20
0.12079520718476955
30
0
11
-5.942018389958279
21
-3.2605490910451032
31
0
0
LINE
5
108
100
AcDbEntity
8
0
100
AcDbLine
10
-5.942018389958279
20
0.12079520718476955
30
0
11
-5.942018389958279
21
3.5021395054146423
31
0
0
LINE
5
109
100
AcDbEntity
8
0
100
AcDbLine
10
-5.942018389958279
20
3.5021395054146423
30
0
11
-11.884036779916558
21
-3.2605490910451032
31
0
0
LINE
5
110
100
AcDbEntity
8
0
100
AcDbLine
10
-5.942018389958279
20
-3.2605490910451032
30
0
11
-11.884036779916558
21
3.5021395054146423
31
0
0
LINE
5
111
100
AcDbEntity
8
0
100
AcDbLine
10
11.884036779916558
20
-3.2605490910451018
30
0
11
11.553166704117031
21
-3.0722653176137857
31
0
0
LINE
5
112
100
AcDbEntity
8
0
100
AcDbLine
10
5.942018389958279
20
3.5021395054146423
30
0
11
11.884036779916558
21
-3.2605490910451018
31
0
0
LINE
5
113
100
AcDbEntity
8
0
100
AcDbLine
10
11.884036779916558
20
3.5021395054146423
30
0
11
5.7953485375177411
21
-3.2605490910451023
31
0
0
CIRCLE
5
114
100
AcDbEntity
8
0
100
AcDbCircle
10
8.913027584937419
20
0.1207952071847701
30
0
40
1.5000000000000002
210
0
220
0
230
1
0
CIRCLE
5
115
100
AcDbEntity
8
0
100
AcDbCircle
10
-8.913027584937419
20
0.12079520718476955
30
0
40
1.5000000000000013
210
0
220
0
230
1
0
CIRCLE
5
116
100
AcDbEntity
8
0
100
AcDbCircle
10
-8.913027584937419
20
0.12079520718476955
30
0
40
3.5000000000000013
210
0
220
0
230
1
0
CIRCLE
5
117
100
AcDbEntity
8
0
100
AcDbCircle
10
8.913027584937419
20
0.1207952071847701
30
0
40
3.5000000000000013
210
0
220
0
230
1
0
LINE
5
118
100
AcDbEntity
8
0
100
AcDbLine
10
3.9999999105930328
20
-3.2605490910451023
30
0
11
3.9999999105930328
21
3.5021395054146414
31
0
0
LINE
5
119
100
AcDbEntity
8
0
100
AcDbLine
10
-3.9999999105930337
20
-3.2605490910451023
30
0
11
-3.9999999105930328
21
3.5021395054146423
31
0
0
LWPOLYLINE
5
120
100
AcDbEntity
8
0
100
AcDbPolyline
90
4
70
1
43
0.0
10
3.999999910593055
20
5.3707952854158751
10
3.999999910593055
20
-5.1292048710463227
10
-3.9999999105930364
20
-5.1292048710463147
10
-3.9999999105930373
20
5.3707952854158423
0
LINE
5
121
100
AcDbEntity
8
0
100
AcDbLine
10
3.999999910593055
20
-5.1292048710463227
30
0
11
3.999999910593055
21
0.1207952071847751
31
0
0
LINE
5
122
100
AcDbEntity
8
0
100
AcDbLine
10
-3.9999999105930364
20
-5.1292048710463156
30
0
11
-3.9999999105930373
21
0.12079520718476289
31
0
0
ELLIPSE
5
123
100
AcDbEntity
8
0
100
AcDbEllipse
10
9.4368957093138306e-15
20
-5.1292048710463192
30
0
11
-3.9999999105930457
21
3.33066907387547e-15
31
0.0
40
0.62500001396983695
41
0
42
3.1415926535897931
0
ELLIPSE
5
124
100
AcDbEntity
8
0
100
AcDbEllipse
10
8.8817841970012523e-15
20
5.3707952854158592
30
0
11
-3.9999999105930466
21
-1.6653345369377345e-14
31
0.0
40
0.62500001396983673
41
3.1415926535897927
42
6.2831853071795862
0
ENDSEC
0
SECTION
2
OBJECTS
0
DICTIONARY
5
C
100
AcDbDictionary
3
ACAD_GROUP
350
D
3
ACAD_MLINESTYLE
350
17
0
DICTIONARY
5
D
100
AcDbDictionary
0
DICTIONARY
5
1A
330
C
100
AcDbDictionary
0
DICTIONARY
5
17
100
AcDbDictionary
0
ENDSEC
0
EOF
